<svg xmlns="http://www.w3.org/2000/svg" viewBox="0 0 600 600" enable-background="new 0 0 600 600"><style type="text/css">.st0{fill:none;} .st1{fill:#231F20;} .st2{fill:#262222;} .st3{fill:#EDD3B5;} .st4{fill:#33505F;} .st5{fill:#FDFDFD;} .st6{fill:#D03833;} .st7{fill:#476F88;} .st8{fill:#F3E0CA;} .st9{fill:#6C6A6B;} .st10{fill:#D6D3D1;} .st11{fill:#E93B38;} .st12{fill:#80ACC1;}</style><path class="st0" d="M0 0h600v600h-600z"/><path class="st1" d="M465.3 405.5c-2.3-4.9-5.7-8-9.7-9.8 16-27.6 25.2-59.7 25.2-94.1 0-51-20.2-97.2-52.9-130.6-1.5-1.6-3.1-3.1-4.7-4.7-1.1-19.4-4.9-37.7-11.9-51.8-6.1-12.4-23.3-29.5-34-37.6-25.3-19.1-72.1-21.2-102.5-10-8.5 3.1-16.7 5.9-24.2 10.3-20 11.7-41.2 19.6-47.1 43.2-12.7 5.7-17.7 20.5-18.3 38.5-4.6 3.8-9 7.9-13.1 12.2-32.7 33.4-52.9 79.7-52.9 130.6 0 51 20.2 97.2 52.9 130.6 3.4 3.5 7 6.9 10.7 10.1.3 3.9.5 7.9.8 11.9.5 8.1-.3 16.8 1.8 21.3 2.2 4.6 10.3 6.1 16.1 8.8 16.9 7.8 34.7 19.7 56.8 17.3 5.3 17.7 10.3 36.6 16.6 52.1 22.7 8.2 58.5 6.9 82 4 7.2-.9 14.7-4.4 16.4-10.6-.5-3.8-1.1-7.6-.8-12.1 7.4-1.5 17.4-2.8 19-10.9 2.3-11.4-7.2-27.8-4.1-40.4 4.3-1.4 8.8-2.5 8.1-9.2 7.2-3.7 15.7-4.6 24.8-4.2 1.2 2.3 2.8 4.4 4.3 5.7 12.7 2.6 25.1 2.8 35.7-.7 12-3.9 17.7-28.4 15-40.1-1.8-8.3-6.2-21.8-10-29.8z"/><path class="st2" d="M346.2 326.1c-6.4.3-7.4 1.5-6 7.5.1.5.2 1 .2 1.4l.7 2.3c.7 2.8 1.7 3.7 4.2 3.6 3.5 0 6.7-3.2 6.9-7 .4-4.6-1.6-7.2-6-7.8zm-88.8-235.8c3.3-1.9 6.6-3.7 9.8-5.8.8-.5 1.2-1.8 1.8-2.7-1.2-.4-2.3-1-3.5-1.1-.8-.1-1.6.3-2.4.6-8.5 2.9-16.7 6.6-24.4 11.2-7.6 4.5-14.6 9.9-20.3 16.8-2.1 2.5-3.8 5.3-5.7 8l.6.9c4.1-.8 8.1-2.2 11.9-4 3.5 0 6.9-.1 10.4 0 2.2.1 3.9-.5 5.2-2.3 2.4-3.3 4.8-6.6 6.9-10.1 2.2-3.5 4.3-7 8-9.1.9-.5 1.2-1.6 1.7-2.4zm107 305.8c.2-.4.6-.9.6-1.3 1.9-11.8 2.5-23.7 2.6-35.6.2-2.2.5-4.5.6-5.9-3.6-1.9-6.7-3-9.3-4.9-3.9-2.9-7.6-3.7-11.9-1.2-1.2.7-2.9 1.3-4.3 1.1-3.6-.6-4.9 1.8-6.2 3.9 2.3 3.4 4.6 6.2 6.3 9.5 4 8 7.7 16.1 11.5 24.3l7.9 17.1.9-.2c.4-2.4.9-4.6 1.3-6.8zm41.6 57.8c-.1-8.5-1.1-16.9-3.8-25-3.9-11.1-2.4-9-12.7-8.8-.3 0-.6.3-1.3.7 1.8 11.9 3.6 24 5.4 36.1.3 2.8.6 5.6.8 8.4.1 1.7 1.2 2 2.4 1.7 3-.8 6-1.9 8.9-2.8.2-2.4.5-4.8.6-7.2 0-1.1-.2-2.1-.3-3.1zm-180.5-257.1l.1-.1c-2-9.3-8.3-14.5-16.7-13.4-12.3 1.7-18.7 11.1-19.6 20.1-1 10.1 2.3 19.2 8.8 27.1 2.2 4.1 5.8 6.7 10 8.4 5 2.1 10 2 14.3-2 1.1-1 2.3-2 3.7-2.5 1.6-.6 3.3-1.8 5-.2.8 3.5-.5 6.2-3 8.4-.6.6-1.1 1.2-1.8 1.8-1.9 1.7-2.6 3.8-2.2 6.3.2 1.5.3 3 .6 4.4 2.7 11.9 7.2 23 12.9 33.8 5.5 10.4 14.1 16 25.5 17.6 5.7.8 11.4 1.6 17.2 2.3.8.1 2.1-.3 2.6-.9 2.8-3.6 6.6-4.1 10.8-3.9 1.8.1 3.8.6 5.9-.7-.6-.8-.9-1.5-1.4-1.8-8.3-5.5-14.9-12.7-21.2-20.3-3.3-3.9-6.4-8.1-9-12.5-2.2-3.6-3.8-7.5-3.4-12.1 5.7 7.3 11 14.5 16.8 21.4 9.7 11.6 21.7 20.1 36 24.9 3.9 1.3 8.1 2 12.2 2.3 10.1.8 19.8-1.4 29.1-5.3 13.4-5.6 25.5-13 32.6-26.4.2-.4.5-.9.8-1.3 15.4-22 22.4-46.9 24.1-73.3.8-11.4.3-23-.1-34.5-.2-6.6-.9-13.2-2.6-19.7-1.6-5.9-4.4-10.8-9.3-14.3-7.2-5.1-14.9-8.3-23.5-2.8-.3.2-1-.4-1.5-.6 1.2-9.5 6.6-12.7 20-11.3-2.8-3.4-5.3-6.5-7.9-9.6-1.3-1.7-2.4-3.6-3.8-5.1-4.8-5.2-9.2-10.8-15.8-14-3.6-2-7.1-4.2-10.9-5.8-12.4-5.5-25.4-8.7-38.8-9.8-9.2-.7-18.4 0-26.9 3.8-14.3 6.4-27.6 14.6-39.2 25.2-4.8 4.4-8.9 9.4-12.1 15.1-.8 1.4-1.6 2.6-.8 4.6 2.6 6.8 2.8 13.9 1.7 21.1-1 4.8-2 9.7-3.1 14.5-2.3 10.3-3.3 20.5.4 30.8 1 2.8 1.4 5.8 2 8.7 1 5.2.1 6.7-5.2 8.2-2 .6-4.2.8-6.3.9-4.2.2-4.2.1-5.3-3.9-.2-.8-.6-1.5-1-2.3-.2-.5-.5-.9-.7-1.3zm96.8 138.1c1.7-.6 3.3-1.3 4.9-1.9 2-.7 4.1-1.2 6.1-2 .7-.3 1.2-1.4 1.7-2.1-.6-.5-1.2-1.2-1.9-1.3-3.3-.7-6.1-2.2-9-4-8.9-5.6-18.7-8.7-28.8-11.3-3.2-.8-5.7.6-7.4 3.5-1.9 3.1-2.2 6.6-2.4 10-.9 11.2 1.2 22 6 32.2.6 1.9 1.3 3.7 1.8 5.6.5 2 1.8 2.6 3.6 2.5 1-.1 2 0 2.9-.3 7.4-2 14.7-4.5 20.9-9.4 4.4-3.5 8.8-6.9 13.1-10.5.9-.7 1.3-2.2 1.5-3.4.3-1.1 0-2.3 0-3.5-.6-2.1-2.7-2.4-4.3-2.8-2.8-.7-5.8-.9-8.7-1.3zm38.9 7.5c8 2.6 16.3 3.5 24.7 3.7 3.6.1 4.4-.8 5.4-4.3 1.9-6.6.4-13.1-.5-19.5-.2-1.8-1-3.4-1.5-5.2-.3-1.1-.5-2.2-1-3.3-1.6-3.9-4.1-5-8.3-4.2-3.8.8-7.2 2.5-10.4 4.5-4.4 2.9-8.8 5.8-13.4 8.7l.7 1.7c1.2 3.4 1.2 3.3 4.7 3.5 2 .2 4.1.7 6.1 1.1-.8.8-1.4.8-2 .9l-2.4.7c-3.6.9-5.5 2.2-4.7 4.3.8 2.3-.8 5.1 1.5 6.9.4.3.7.4 1.1.5zm18 91.6c-.4-3.2-.7-6.5-1.4-9.6-.2-.9-1.3-2.2-2.1-2.3-3.1-.2-6.3-.2-9.4.1-2.5.2-3.2 1.3-3.2 4 0 4 0 7.9.1 11.9.2 6.1-.2 12.2.8 18.3.9 5.8-.1 11.9 1.1 17.8.6 2.8.3 3.2 3.2 2.9 4.9-.5 9.7-1.4 14.9-2.2-.2-2-.3-3.7-.4-5.5l-.6-4.4c-.4-6.3-.6-12.5-1.1-18.8-.2-3.1-.6-6.2-1-9.3 0-1.1-.5-2-.9-2.9zm-142-307c-.1-1.3-.2-2.6-.5-3.9-.3-1.5-1.2-2.2-2.9-1.9-11.1 1.7-21 5.7-29.1 13.7-4.1 4-6.3 8.8-7.5 14.3-1.6 7.7-1 15.5-.7 23.3.1 1.5.7 3 1.2 5.2 1-1.3 1.4-2 1.9-2.6l12.3-1.2c7.9-.7 18.5 5.8 21.3 15.4.4 1.4.6 2.9 1.1 4.3.2.5.7 1.1 1.2 1.2.5.1 1.3-.3 1.6-.7 1.4-2.1 1.2-4.2.5-6.6-2.1-6.6-3.9-13.3-3.3-20.3l.9-6.3c.7-6.2 1-12.5 2.3-18.6.9-4.5.5-8.9.7-13.3 0-.7-.7-1.3-1-2zm174 289.9c-3.9 2.3-3.9 2.3-3 6.3.8 3.9 1.6 7.8 2.1 11.7 1.1 8.5 2 17.1 2.9 25.7.2 1.7.8 2.4 2.5 2.3l4-.1c6-.3 11.9-.9 17.9-.9 4.1 0 8.2.6 12.3 1-1.5 1.3-3.1 1.8-4.7 2.2-3.6.7-7.2 1.2-10.7 2.2-1.7.5-4 .3-5.2 2.6 2.2.4 4.1 1.1 6.1 1 4.5-.1 8.9-.5 13.4-.8 9.2-.6 15.4-7.6 17.5-15.4 2.1-7.5.8-14.7-1.9-21.7-.8-6.9-2.8-13.6-5.4-20-1.8-4.5-5.1-7.7-9.7-9.4-2.6-1-5.1-.8-7.7.3-5.9 2.6-11.9 4.8-17.8 7.3-4.3 1.8-8.4 3.8-12.6 5.7zm14-88.9c0-.7 0-1.3.1-2 .7-4.5-.9-8.1-4.4-10.9-2.3-1.9-4.6-3.7-6.8-5.7-5.9-5.5-11.8-11.1-17.7-16.7-1.1-1-2.2-1.9-3.2-2.8-2.4 2-4.7 3.7-6.8 5.5-3.1 2.7-3 3.3.8 4.7 2.4.9 4.3 2.4 5.8 4.5l2.1 2.6c2.3 8.6 3.6 17.3 3.2 26.3-.2 4-.6 7.9-2.1 11.5-1.4 3.6-.6 6.2 2.2 8.7 3.2 3 4.1 2.7.8 7.8-.4.6-.7 1.1-1 1.7-6.8 11.2-13.6 22.5-20.4 33.8-2.5 4.2-4.9 8.4-7.3 12.5 6.6-.2 13-.3 19.4-.6 1.8-.1 3.6-.5 5.3-1 2.1-.7 4-1.7 5-3.8.9-1.8 1.9-3.5 2.6-5.3 5.6-14.1 11.1-28.3 15.5-42.8 2.9-9.3 4.9-18.6 6.9-28zm-14.9 76c1.4-.4 2.9-.5 4.2-1.2 9-4.3 18.1-8 28.1-9 1.2-.1 2.8-1.4 3.4-2.5 3.9-7.5 7.8-14.9 11.2-22.7 4.4-10.3 7.7-21 9.7-32.1 1.5-8.4 2.8-17 3.2-25.5.6-11.7.2-23.5-1.7-35.2-1.4-9-3.4-17.8-5.9-26.4-5.1-16.9-12.7-32.6-22.6-47.2-4.5-6.7-9.8-12.9-14.7-19.3-1.2 3.5-1.5 6.8-1.8 10-.7 8.1-1 16.2-2.4 24.2-1.7 9.9-4.3 19.6-6.8 29.3-2 7.5-4.9 14.7-9.1 21.3-1.6 2.5-2.5 5.4-3.9 8-1.1 2.1-.5 3.8.9 5.4.6.8 1.3 1.5 2.1 2.2 7.9 7.1 15.9 14.2 23.7 21.4 2.4 2.2 4.6 4.7 6.5 7.3 1.9 2.5 2.4 5.5 1.8 8.5-.6 3.4-1.3 6.8-2.3 10.1-6.4 20.1-12.9 40.1-19.4 60.1-1.6 4.5-2.9 8.9-4.2 13.3-.2.2-.3.5-.4.8.1-.3.2-.5.4-.8zm-279-85c0 1.7-.2 3.4.1 5 1.2 6.1 2.6 12.2 3.7 18.4 2.7 14.1 8.1 27.2 14.4 39.9 5 10.1 11.3 19.5 18.2 28.4 4 5.1 8.5 9.7 13.4 15.3 0-2.8.2-4.4 0-6-.5-3.4-1.1-6.8-1.8-10.2-1.4-6.9-2.5-13.9-4.6-20.7-2.7-8.8-6.3-17.3-9.4-26-2.6-7.3-5.3-14.6-7.4-22-1.2-4.2-2.1-9 1.3-12.8 1.7-1.9 4-3.4 6.2-4.7 2.5-1.6 5.5-2.5 7.9-4.2 13.5-9.4 27.7-17.4 42-25.4 1.9-1.1 3.7-2.1 5.5-3.3 4.7-3.1 5.6-6.4 2.9-11.4-1.1-2-2.5-3.9-3.7-5.9-3.1-5.2-5.3-10.7-5.8-16.7-.3-3.1-1.5-4.8-4.5-5.4-6.4-1.3-11.7-4.9-16-9.5-7-7.6-10.8-16.9-12.5-27-.8-4.9-.9-9.9-1.2-14.8 1-6.2 1.9-12.3 6-17.6 2.1-2.8 1.6-6.1-.5-9.6-4.9 5.3-9.5 10.3-14 15.4-12 13.7-21 29.3-28.1 46-7.5 17.6-11.6 36.1-12.9 55.1-.7 9.8-1.1 19.8.8 29.7zm197.9 229.9c10.9.7 21.5-1 32-3.8 3.4-.9 3.4-1.1 2.9-4.4-.6-4.1-1.5-8.2-1.7-12.3-.6-11-.9-21.9-1.3-32.9-.3-6-.6-11.9-1-17.9l-1.8-24.3c-.5-8-.6-16-1.5-23.9-.8-7.2-1.1-7.2-8.5-7.4-.8-.2-1.6-.6-2.4-.7-11.8-1.2-23.6-1.8-35.4-.9-12.4.9-24.8 2.4-37.2 3.8-4.5.5-8.9 1.2-13.3 2.1-3.3.7-3.3.8-2.8 4l.9 6.9c2.3 20.7 5.5 41.2 10.3 61.4 3.3 13.7 7.3 27.2 11 40.8.6 2.3 1.6 3.6 4.1 4.3 14.9 3.8 30.1 6.3 45.7 5.2zm-86.9-235.9c-3.1-3.6-6.2-7.4-9.4-10.9-2.6-2.9-3.7-2.9-7.4-1.2-3.9 1.8-7.7 3.8-11.5 5.7-15.9 7.9-29.8 18.8-44.1 29.2-1.7 1.3-1.5 2.5-.7 4.2 2.2 5.1 4.4 10.3 6.3 15.5 4.8 13.1 8.4 26.5 11 40.3 2 10.7 4.2 21.3 4.9 32.1.2 3.4.7 6.9 1 10.3.7 7.6 1.6 15.1 1.8 22.7.1 4.2.8 7 5.2 8 8 4.2 15.9 8.6 24.1 12.5 8.6 4.1 17.5 7.3 27 8.5 1.9.3 3.9.8 5.8.9 3.1.1 3.4-.2 3.1-3.4-.2-2.8-.6-5.5-1-8.3-1.3-8.7-2.7-17.4-3.9-26.2-.8-6-1.4-12-2.1-18.1v-4c-.1-3.2-.1-3.6-3.5-4.2-3.3-.6-6.9-.7-10.3-.3-3.5.3-6.8 1.1-10.2-.5.3-3.3 2.9-4.1 5.4-4.9 1.2-.4 2.6-.5 3.7-1.1 2-1 2.3-2 1.2-4-.8-1.4-2.1-2.6-2.8-4-.5-.9-.7-2.4-.2-3.2.7-1.3 2-.6 3 .1 2.4 1.5 4.7 3 7.1 4.4 2.5 1.4 3.7 1 4.3-1.7.6-2.7 1.2-5.5 1.2-8.2-.1-5.6-.6-11.2-1-16.8 0-.6-.6-1.2-.6-1.9-.5-4.8-.9-9.6 1-14.2.5-1.3 1.1-2.8 3.2-2.4 2.1.4 1.3 2 1.6 3.1-.4 10.1-.8 20.1-1 30.2-.1 3.8-.3 7.5.8 11.3 1.4 4.7 1.7 5.2 6.3 4.3.6-.1 1.2-.5 1.8-.8 5.5-.7 11-1.4 16.5-1.9 7.3-.7 14.7-1.6 22-2 10.1-.6 20.1-.7 30.2-1.1 1 0 2 0 3-.1.4 0 .8-.4 1.6-1-1.2-.7-2.1-1.4-3.1-1.8-4.8-2.1-9.7-3.9-14.4-6.2-6-2.9-12.1-6-17.8-9.4-5.8-3.5-6.1-5.8-2.5-11.5 1.4-2.2 2.4-4.6 3.6-6.9l.4-.8-.5.8c-2.1.1-4.2.7-6.1.3-5.1-.9-7.4-5-8.6-9.2-2.7-8.9-6-17.6-7.3-26.8-.4-2.7-1.6-5.1-4.6-6.3-5-2.1-9.8-4.7-14.6-7.1-7-3.3-13.4-7-18.9-12zm63.1 70.5c14.7 8.6 30.1 15.6 46.3 21.1.7.2 1.5 0 2.3 0-.1-.7-.1-1.5-.4-2.2-4.5-11.6-9.5-22.9-15.5-33.8-1.7-3.2-3.9-6.2-5.9-9.2-1.1-1.6-2.3-2.1-4.1-.8-2.9 2.2-6.2 3.9-9 6.2-6 5.2-11.9 10.4-13.7 18.7zm62.4 18.6c2-.4 2.7-2 3.5-3.3 4.6-7.2 9.4-14.4 13.9-21.8 3-4.8 5.6-9.8 8.4-14.6.8-1.4 1.2-2.7.3-4.2-3.1-5.1-11.6-8.1-17.5-6.5-2.5.7-3.1 1.9-3.1 4.2-.2 6.5-.6 12.9-1.1 19.4-.3 3.8-1 7.5-1.6 11.3-1 5-1.9 10.1-2.8 15.5zm-1.7 96.9c.4 7.6.9 15.6 1.2 23.5.1 2.3 1 3.1 3 2.6 3.7-.8 7.4-1.6 11-2.6 1.2-.3 1.9-1.2 1.7-2.6-.1-1.1 0-2.3-.2-3.5-1.4-8-2.8-15.9-4.3-23.9-.5-2.5-1.3-5-2-7.5-2.6.5-5.1 1.1-7.7 1.5-1.9.3-2.9 1-2.7 3.1.2 3.1 0 6.1 0 9.4zm-111.1-188.8c-1.6 2.9.2 4.3 1.8 5.6 4.4 3.4 9.5 5.3 14.8 6.9 6.3 1.9 6.4 1.8 7.9-4.7.9-3.6.8-3.5-2.6-4-7.3-1.1-14.9-.3-21.9-3.8zm71 2.9c.5.8.6 1.3 1 1.5 6.1 4.8 13.2 6 20.7 5.3 1.1-.1 2.2-.8 3.1-1.4 3.4-2.6 6.8-5.3 10.1-8-3-.1-5.9.5-8.7 1.1-6.2 1.4-12.3 3.1-18.7 2.6-2.4-.2-4.8-.7-7.5-1.1z"/><path class="st3" d="M231.1 234.1c-1.7-1.5-3.5-.4-5 .2-1.3.5-2.6 1.5-3.7 2.5-4.3 4-9.2 4.1-14.3 2-4.1-1.7-7.8-4.3-10-8.4-.1-1.1-.2-2.3-.4-3.4-.5-2.7-1.4-5.4-1.4-8.1 0-2.7 1-5.4 1.5-8.1l1.4-8.7c1.8-1.5 3-4.2 6.1-2.8-2.1 14.3-1.7 18.1 2.9 23.7 0-3.9-.2-7.4.1-10.8.2-2.4.5-5 1.5-7.3 1.5-3.6 4.6-3.9 7-1 1.1 1.4 1.8 3.2 2.6 4.8 1.1 2 1.7 4.3 4.3 5.6.2-.9.5-1.5.5-2.1.7-6.7-1.7-12.4-6.3-17.2 1.5.3 3 .6 4.6.9l3.1.6-.1.1.7 1.2c.3.8.8 1.5 1 2.3 1 4 1 4.1 5.3 3.9 2.1-.1 4.3-.3 6.3-.9 5.3-1.5 6.2-3 5.2-8.2-.6-2.9-1-5.9-2-8.7-3.7-10.2-2.8-20.5-.4-30.8 1.1-4.8 2.1-9.7 3.1-14.5.6-.5 1.4-.8 1.7-1.4 1.6-2.9 3-5.8 4.5-8.7 6.9-13.2 16.5-24 29-32.1 7-4.6 14.6-7.8 22.8-10 11.6-3.2 23.3-5.1 35.3-4.8 3.8.1 7.7.2 11.5 0 6-.3 11.7 1.3 17.5 2.3 1.6.3 3.2.4 4.8.6 6.6 3.2 11 8.8 15.8 14 1.4 1.5 2.5 3.4 3.8 5.1-.5.3-1 .9-1.5.9-4.7.4-8.3 2.7-11.2 6.3-2.8 3.5-3.7 7.6-3.2 11.9.2 1.7 1.6 2.2 3.8 1.8.5.2 1.2.8 1.5.6 8.6-5.5 16.3-2.4 23.5 2.8 4.9 3.5 7.8 8.4 9.3 14.3 1.7 6.5 2.3 13.1 2.6 19.7.4 11.5.9 23 .1 34.5-1.7 26.4-8.7 51.3-24.1 73.3-.3.4-.6.8-.8 1.3-7.1 13.5-19.2 20.8-32.6 26.4-9.3 3.9-19 6.2-29.1 5.3-4.1-.3-8.3-1-12.2-2.3-14.4-4.8-26.4-13.3-36-24.9-5.7-6.9-11.1-14.1-16.8-21.4-.4 4.5 1.3 8.5 3.4 12.1 2.7 4.4 5.8 8.6 9 12.5 6.3 7.5 13 14.8 21.2 20.3.5.3.8 1 1.4 1.8-2 1.3-4.1.8-5.9.7-4.2-.2-7.9.3-10.8 3.9-.5.6-1.8 1-2.6.9-5.7-.7-11.5-1.5-17.2-2.3-2.1-2.7-3.9-5.6-6.2-8.1-6.8-7.6-11.4-16.4-14.7-25.9-3.8-10.8-6-21.9-7.1-33.3-.1-1.4-.8-2.9-1.6-4-.4-.6-1.6-.6-2.5-.9zm171.3-66.3c.8 1.9 1.5 3.8 2.5 6.1-2.9.5-5.2.9-7.5 1.2-2.3.3-4.6.4-6.9.8-3.5.6-4.3 2.3-2.5 5.3 1.2 2.1 3 3.5 5.5 3.8 7 .6 13-1.7 18-6.6 1.4-1.3 1.5-2.5.5-4.3-3.5-6.5-6.8-13.2-10.1-19.8-.6-1.1-1.3-2.1-2.5-4.1-.1 2.7-.2 4.3-.3 6-6.6 1-11.3 6.2-11 12.4.2 3.1.8 3.9 4 3.5 3.9-.6 7.5-1.6 10.3-4.3zm-96.1-47.8c-.2-.6-.1-1.4-.5-1.9-3-3.9-7.3-5.2-12.4-3.7-7.3 2.2-12.6 6.8-17.2 12.7-3.5 4.5-4.2 9.5-3.9 14.9.1 1.5.7 2.5 2.1 3 .6 2 .7 4.3 3.4 4.8 1.6-2.7 2.9-5.3 4.5-7.8 4.5-7 10.5-11.8 19.1-12.6 2.3-.2 4.6.2 6.9.4 2.7.3 4.1-1 3.3-3.7-.4-1.5-1.5-2.9-2.5-4.1-.8-.9-1.9-1.4-2.8-2zm12.9 36c-4.5-.3-8.2 1.9-11.6 4.4-4 2.9-4.2 8.5-.8 11.6 1.8 1.7 4 2.3 6.4 2 3.8-.6 8.3 1.7 11.4-2.4 1 1.7 2 3.4 3.1 5s.3 2.6-1.1 3.1c-2.7.9-5.4 1.6-8.3.9-3.1-.7-6.2-1.2-9.3-1.6-2.8-.3-3.6.6-3.8 3.3-.2 3 1.5 4.6 3.9 5.7 6.2 2.7 12.6 2.8 19 1.2 2.1-.5 4.1-2.1 5.8-3.7 3-2.8 3.2-7 .8-10.4-.8-1.1-1.7-2-2.7-2.9-3.2-2.8-5.3-6.3-7-10.2-1-2.4-2-4.9-3.1-7.3-.4-1-1.2-1.8-2.2-3.4-.2 2.1-.4 3.4-.5 4.7zm27.8 69.1c2.8-2.2 5.5-4.7 8.5-6.6 1.9-1.2 2.2-2.3.9-3.9-1.1-1.3-2.4-2.5-3.7-3.7-1.3-1.3-2.4-.6-3.3.5-2.3 2.9-3.1 6.4-3.4 10.1-.6.3-1.6.4-1.8.9-2.6 4.8-2 9.6.6 14.2.9 1.7 2.2 2.9 4.3 2.8 4.8-.2 9.7.1 14.3-.6 11.5-1.9 21.5-7.5 31.1-13.8.7-.5 1.4-1.4 1.7-2.3l2.4-7.6c1.2-3.3.6-6-2.2-8.5-8.7-7.8-15.9-17-22.8-26.4-4.4-6-8.6-12.2-10.4-19.6-.2-.7-.7-1.5-1.3-2.1-.9-.9-2.4-.3-2.6 1-.1.8-.1 1.7-.1 2.5.4 5 1.6 9.8 3.7 14.4 4.1 9.2 10.4 16.9 16.8 24.6 2.6 3.1 5.4 5.9 7.8 9.1 3.8 5 2.2 10.9-3.4 13.5-4.2 2-8.4 4-12.7 5.8-4.9 2.1-9.9 3.8-15.3 3.7-6.3-.1-7.9-1.4-9.1-8zm27.5 42.9h-6c-9.1 0-18.3.6-27.4-.9-9.9-1.6-18.6-5-23.6-14.5-.9-1.7-3-2.2-4.5-1.2-1.2.7-1.1 2.1.3 3.8 3.5 4.4 7.2 8.7 10.6 13.1 3.5 4.6 8.2 7.2 13.7 8.4 9.4 2 18.8 1 28.1-1.1 3.9-.9 6.9-3 8.8-7.6zm-55.6-28.1c3.3 7.2 8.8 10.6 14.9 13 9.2 3.7 18.9 5 28.7 5 5.6 0 5.1.4 4.9-5.2-.2-8.2.4-6.6-6.6-6.7-14-.1-27.8-.5-41.9-6.1zm53 16.7c12.9 1 29.7-11.7 31.1-23.8-2.4 1.3-4.5 2.4-6.6 3.6-5.7 3.1-11.4 6.1-17.8 7.6-2.2.5-5.3.6-6.3 2-1.2 1.8-.6 4.8-.7 7.2-.1 1.2.1 2.4.3 3.4zm-58.7-11.8c-2.9-.8-4.7-1.5-6.5-1.7-4.3-.6-7 2-6.3 6.3.4 2.5 1.5 5 1.8 7.5.3 2.4 1.9 2.6 4 3.2 0-6 .1-11.7 7-15.3z"/><path class="st4" d="M252.3 435c.7 6 1.2 12.1 2.1 18.1 1.2 8.7 2.6 17.4 3.9 26.2.4 2.8.8 5.5 1 8.3.3 3.2 0 3.5-3.1 3.4-1.9-.1-3.9-.7-5.8-.9-9.5-1.2-18.4-4.5-27-8.5-8.2-3.9-16.1-8.3-24.1-12.5 1-4.8 2.1-9.6 2.1-14.5-.1-12.5.3-25.1-1.9-37.5-1.1-6.1-1.2-12.4-2.2-18.5-1.4-8.7-3.1-17.3-4.9-25.9-1.9-9.1-3.8-18.1-5.9-27.2-1.5-6.5-1.6-6.5 4.4-9.2.4-.2.9-.4 1.4-.6l22.4-10.2c9.3-4.2 18.5-8.3 27.8-12.4 5.5 5 11.9 8.7 18.6 11.9 4.9 2.4 9.6 5 14.6 7.1 3.1 1.3 4.2 3.6 4.6 6.3 1.3 9.2 4.6 17.9 7.3 26.8 1.3 4.2 3.6 8.4 8.6 9.2 2 .3 4.1-.2 6.1-.3-1.2 2.3-2.2 4.7-3.6 6.9-3.6 5.7-3.3 8 2.5 11.5s11.8 6.5 17.8 9.4c4.7 2.3 9.6 4.1 14.4 6.2 1 .4 1.8 1.1 3.1 1.8-.8.5-1.2.9-1.6 1l-3 .1c-10.1.3-20.1.5-30.2 1.1-7.4.4-14.7 1.2-22 2l-16.5 1.9c0-10.6-.3-21.2.1-31.8.2-5.7-2.7-9.2-6.2-12.7-.4-.4-1.2-.3-1.8-.5-.4-1.1.4-2.7-1.6-3.1-2.1-.4-2.6 1.1-3.2 2.4-1.9 4.6-1.5 9.4-1 14.2.1.6.6 1.2.6 1.9.4 5.6.9 11.2 1 16.8 0 2.7-.5 5.5-1.2 8.2-.6 2.7-1.8 3.1-4.3 1.7-2.4-1.4-4.7-2.9-7.1-4.4-1-.6-2.3-1.4-3-.1-.5.8-.2 2.3.2 3.2.7 1.5 2 2.6 2.8 4 1.1 2 .8 3-1.2 4-1.1.6-2.5.7-3.7 1.1-2.5.9-5.1 1.6-5.4 4.9-.9.1-1.8.2-3 .3.6.7.8 1.2 1.2 1.5 3.8 2.5 7.2 5.4 12.3 5.4 4.6.2 9.1 1.3 13.6 2z"/><path class="st5" d="M329.2 548.9c-15.6 1-30.8-1.5-45.9-5.3-2.4-.6-3.5-2-4.1-4.3-3.6-13.6-7.7-27.1-11-40.8-4.8-20.2-8-40.7-10.3-61.4l-.9-6.9c-.4-3.2-.4-3.3 2.8-4 4.4-.9 8.8-1.6 13.3-2.1 12.4-1.4 24.8-2.9 37.2-3.8 11.8-.9 23.6-.3 35.4.9.8.1 1.6.5 2.4.7.5 18.7-1 37.5.9 56.2.8 8 .8 16.2 1.1 24.3 0 .7.1 1.3.2 2l1.8 11.6c.8 5.7 1.5 11.3 2.5 17 .6 3.5.8 3.5-2.1 5-7 3.6-14.2 6.9-21.8 9-1.1.3-1.5.8-1.5 1.9z"/><path class="st6" d="M180.1 200c.4 4.9.4 9.9 1.2 14.8 1.7 10.1 5.5 19.4 12.5 27 4.3 4.6 9.6 8.2 16 9.5 3 .6 4.2 2.3 4.5 5.4.5 6 2.8 11.5 5.8 16.7 1.2 2 2.6 3.9 3.7 5.9 2.7 5 1.8 8.2-2.9 11.4-1.8 1.2-3.7 2.3-5.5 3.3-14.3 8-28.6 16-42 25.4-2.4 1.7-5.4 2.6-7.9 4.2-2.2 1.4-4.5 2.8-6.2 4.7-3.5 3.8-2.5 8.5-1.3 12.8 2.1 7.4 4.8 14.7 7.4 22 3.1 8.7 6.7 17.2 9.4 26 2.1 6.7 3.2 13.8 4.6 20.7.7 3.4 1.3 6.8 1.8 10.2.2 1.6 0 3.2 0 6-4.9-5.6-9.5-10.2-13.4-15.3-6.9-8.9-13.2-18.3-18.2-28.4-6.3-12.7-11.7-25.8-14.4-39.9-1.2-6.1-2.6-12.2-3.7-18.4-.3-1.6-.1-3.3-.1-5 1.4-2.2 1.8-4.7 2-7.3.6-6 1.1-12.1 2.2-18 1.3-6.9 3.2-13.6 4.8-20.4 2.8-12.3 7.4-24 12.6-35.4 5.3-11.5 12.4-22 20.2-32 1.7-2.3 3.5-5.2 6.9-5.9zM410.2 404c1.4-4.4 2.7-8.8 4.1-13.1 6.5-20 13-40.1 19.4-60.1 1-3.3 1.7-6.7 2.3-10.1.5-3 0-6.1-1.8-8.5-2-2.6-4.1-5.1-6.5-7.3-7.8-7.2-15.8-14.3-23.7-21.4-.7-.7-1.4-1.4-2.1-2.2-1.3-1.6-1.9-3.3-.9-5.4 1.4-2.6 2.3-5.5 3.9-8 4.2-6.6 7.1-13.8 9.1-21.3 2.5-9.7 5.1-19.4 6.8-29.3 1.4-7.9 1.6-16.1 2.4-24.2.3-3.2.6-6.5 1.8-10 4.9 6.4 10.2 12.6 14.7 19.3 9.9 14.5 17.6 30.3 22.6 47.2 2.6 8.7 4.5 17.5 5.9 26.4 1.9 11.7 2.3 23.5 1.7 35.2-.5 8.5-1.7 17.1-3.2 25.5-2 11-5.3 21.8-9.7 32.1-3.3 7.7-7.3 15.2-11.2 22.7-.6 1.1-2.1 2.4-3.4 2.5-10 1-19.1 4.7-28.1 9-1.1.5-2.6.6-4.1 1z"/><path class="st7" d="M242.3 313c-9.3 4.1-18.6 8.2-27.8 12.4l-22.4 10.2c-.4.2-.9.4-1.4.6-6 2.7-5.9 2.7-4.4 9.2 2.1 9 4 18.1 5.9 27.2 1.8 8.6 3.5 17.2 4.9 25.9 1 6.1 1.1 12.4 2.2 18.5 2.2 12.5 1.8 25 1.9 37.5 0 5-1 9.7-2.1 14.5-4.3-1-5.1-3.8-5.2-8-.1-7.6-1.1-15.1-1.8-22.7-.3-3.4-.8-6.9-1-10.3-.7-10.8-2.9-21.4-4.9-32.1-2.5-13.7-6.2-27.2-11-40.3-1.9-5.2-4-10.4-6.3-15.5-.8-1.8-1-3 .7-4.2 14.3-10.4 28.1-21.4 44.1-29.2 3.8-1.9 7.6-3.8 11.5-5.7 3.8-1.8 4.8-1.7 7.4 1.2 3.6 3.4 6.6 7.2 9.7 10.8z"/><path class="st4" d="M425.2 328c-2 9.4-4 18.8-6.8 28-4.4 14.6-10 28.7-15.5 42.8-.7 1.8-1.7 3.5-2.6 5.3-1 2.1-3 3.1-5 3.8-1.7.5-3.5.9-5.3 1-6.4.3-12.8.4-19.4.6 2.4-4.1 4.8-8.4 7.3-12.5l20.4-33.8 1-1.7c3.3-5.2 2.4-4.9-.8-7.8-2.7-2.5-3.6-5.2-2.2-8.7 1.4-3.7 1.8-7.6 2.1-11.5.5-9-.9-17.7-3.2-26.3 8.4 6.2 16.8 12.4 25.3 18.6 1.4.9 3.1 1.4 4.7 2.2z"/><path class="st5" d="M411.2 416.9c4.2-1.9 8.3-3.9 12.5-5.6l17.8-7.3c2.6-1.1 5.1-1.3 7.7-.3 4.6 1.7 7.9 4.9 9.7 9.4 2.6 6.5 4.6 13.1 5.4 20-.7 1.6-1.5 3.1-2 4.7-1.4 4.5-2.6 9.1-4.2 13.5-1 2.8-1.3 2.6-4.3 2-1.4-.3-3-.2-4.4-.3-10.7-.4-21.5-.8-32.2-1.1-.1 0-.3-.2-.5-.4-.5-2.1-1-4.3-1.4-6.5-1-5.9-2-11.9-2.9-17.8-.6-3.5-.8-6.9-1.2-10.3zm7.1 10.7c8.5.4 14-5.6 20.6-9.2-8.6-.9-15.3 2.6-20.6 9.2zm4.1 7c9.3.6 17.4-.4 26.5-1.7-12.2-3.7-20.2-3.3-26.5 1.7zm.2 10.8c4.6 1.6 22.4 2.1 30 .9-10.5-2.2-19.8-5.5-30-.9z"/><path class="st8" d="M371.7 86.9c-1.6-.2-3.2-.3-4.8-.6-5.8-1-11.5-2.6-17.5-2.3-3.8.2-7.6.1-11.5 0-12-.3-23.7 1.6-35.3 4.8-8.2 2.2-15.7 5.4-22.8 10-12.5 8.1-22.1 19-29 32.1-1.5 2.9-2.9 5.8-4.5 8.7-.3.6-1.1.9-1.7 1.4 1.1-7.2.9-14.3-1.7-21.1-.7-2 .1-3.2.8-4.6 3.2-5.7 7.3-10.7 12.1-15.1 11.6-10.6 24.9-18.7 39.2-25.2 8.5-3.8 17.7-4.5 26.9-3.8 13.5 1 26.5 4.2 38.8 9.8 3.8 1.7 7.3 3.9 11 5.9z"/><path class="st9" d="M237.2 127c.3.7 1 1.3 1 2-.2 4.4.3 8.8-.7 13.3-1.3 6.1-1.5 12.4-2.3 18.6-.3 2.1-.7 4.2-.9 6.3-.6 7 1.2 13.7 3.3 20.3.8 2.4.9 4.5-.5 6.6-.3.4-1.1.8-1.6.7-.5-.1-1-.7-1.2-1.2-.5-1.4-.7-2.9-1.1-4.3-2.8-9.6-13.4-16.1-21.3-15.4-4.1.3-8.2.8-12.3 1.2-.2-4.5-.5-8.9-.5-13.4 0-5.9 1.9-11.4 5.1-16.3 7.8-11.7 19.5-16.6 33-18.4z"/><path class="st10" d="M329.2 548.9c0-1.1.4-1.6 1.6-2 7.6-2.2 14.7-5.5 21.8-9 3-1.5 2.7-1.5 2.1-5-1-5.6-1.7-11.3-2.5-17l-1.8-11.6-.2-2c-.3-8.1-.3-16.2-1.1-24.3-1.9-18.7-.4-37.5-.9-56.2 7.3.3 7.7.3 8.5 7.4.9 7.9 1 15.9 1.5 23.9.5 8.1 1.2 16.2 1.8 24.3.4 6 .8 11.9 1 17.9.5 11 .7 21.9 1.3 32.9.2 4.1 1.1 8.2 1.7 12.3.5 3.3.4 3.5-2.9 4.4-10.4 3-21 4.7-31.9 4z"/><path class="st11" d="M180.1 200c-3.4.8-5.2 3.6-7.1 6-7.8 10-14.9 20.4-20.2 32-5.2 11.4-9.8 23.1-12.6 35.4-1.6 6.8-3.5 13.5-4.8 20.4-1.1 5.9-1.6 12-2.2 18-.3 2.6-.7 5-2 7.3-1.8-9.9-1.4-19.9-.8-29.8 1.3-19 5.4-37.5 12.9-55.1 7.1-16.7 16.1-32.3 28.1-46 4.5-5.1 9.2-10 14-15.4 2 3.5 2.6 6.8.5 9.6-3.9 5.2-4.9 11.4-5.8 17.6z"/><path class="st6" d="M335.3 339c0 1.2.2 2.4 0 3.5-.3 1.2-.7 2.6-1.5 3.4-4.3 3.6-8.7 7-13.1 10.5-6.2 4.9-13.5 7.3-20.9 9.4-.9.3-2 .2-2.9.3-1.9.1-3.1-.5-3.6-2.5-.5-1.9-1.2-3.7-1.8-5.6.2-.2.7-.4.7-.6-.3-6.6-.6-13.1-1-19.7-.2-2.9-.8-5.9-.7-8.8.1-3.8 2.6-5.8 6.5-5.8 5.9 0 11.9-.4 17.7 1 6.8 1.7 7.7 3.3 6.1 9.1 0 .2-.2.3-.2.4-.2 1.6.9 1.4 2 1.4h-.1c.3.7.4 1.7.9 2 3.6 2 7.4 4 11.9 2z"/><path class="st12" d="M305.4 383.5c1.8-8.4 7.7-13.6 13.7-18.6 2.8-2.3 6-4.1 9-6.2 1.8-1.3 3.1-.8 4.1.8 2 3 4.2 6 5.9 9.2 5.9 10.9 11 22.2 15.5 33.8.3.7.3 1.5.4 2.2-.8 0-1.6.2-2.3 0-16.2-5.6-31.6-12.6-46.3-21.2z"/><path class="st10" d="M411.2 416.9c.4 3.4.7 6.9 1.2 10.3.9 6 1.9 11.9 2.9 17.8.4 2.2.9 4.4 1.4 6.5.2.2.3.3.5.4 10.7.4 21.5.8 32.2 1.1 1.5.1 3 0 4.4.3 3.1.6 3.3.7 4.3-2 1.6-4.4 2.7-9 4.2-13.5.5-1.6 1.3-3.2 2-4.7 2.7 7 4 14.2 1.9 21.7-2.1 7.7-8.3 14.7-17.5 15.4-4.5.3-8.9.7-13.4.8-1.9 0-3.9-.6-6.1-1 1.2-2.3 3.5-2.2 5.2-2.6 3.5-1 7.1-1.4 10.7-2.2 1.6-.3 3.1-.8 4.7-2.2-4.1-.3-8.2-1-12.3-1-6 .1-11.9.6-17.9.9l-4 .1c-1.7.1-2.3-.6-2.5-2.3-.9-8.6-1.8-17.1-2.9-25.7-.5-3.9-1.3-7.8-2.1-11.7-.8-4.2-.8-4.1 3.1-6.4z"/><path class="st8" d="M231.1 234.1c.9.3 2.1.4 2.6 1 .8 1.2 1.4 2.6 1.6 4 1 11.4 3.3 22.5 7.1 33.3 3.3 9.5 7.9 18.3 14.7 25.9 2.3 2.5 4.1 5.4 6.2 8.1-11.5-1.6-20-7.2-25.5-17.6-5.7-10.8-10.2-21.9-12.9-33.8-.3-1.5-.4-3-.6-4.4-.4-2.5.3-4.6 2.2-6.3.6-.5 1.1-1.2 1.8-1.8 2.3-2.3 3.6-5 2.8-8.4z"/><path class="st4" d="M379.2 434c.3.9.9 1.8 1 2.8.4 3.1.8 6.2 1 9.3l1.1 18.8c.1 1.5.4 2.9.6 4.4.2 1.8.3 3.5.4 5.5-5.2.8-10 1.7-14.9 2.2-2.9.3-2.6 0-3.2-2.9-1.2-5.9-.2-12-1.1-17.8-.9-6.1-.6-12.2-.8-18.3 1.8-.2 3.6-.2 5.3-.7 3.6-1 7.1-2.2 10.6-3.3z"/><path class="st6" d="M389.2 317c.5 1.7 1.3 3.4 1.5 5.2.9 6.5 2.4 12.9.5 19.5-1 3.5-1.8 4.4-5.4 4.3-8.4-.1-16.7-1.1-24.7-3.7l.1-3.5c.1-2.4 1-3.5 3.4-3.8l2.5-.1c2.7-.3 4-1.7 4.1-4.4.1-1.6 0-3.3 0-5 0-3.9 1.1-5.4 5.1-6.6 4.2-1.3 8.5-2 12.9-1.9z"/><path class="st12" d="M367.8 402.1c.9-5.4 1.9-10.5 2.7-15.6.6-3.7 1.3-7.5 1.6-11.3.5-6.4.9-12.9 1.1-19.4.1-2.3.6-3.5 3.1-4.2 5.9-1.6 14.4 1.4 17.5 6.5.9 1.5.5 2.8-.3 4.2-2.8 4.9-5.5 9.8-8.4 14.6-4.5 7.3-9.2 14.5-13.9 21.8-.8 1.4-1.4 3-3.4 3.4z"/><path class="st10" d="M366.1 499c0-3.3.1-6.3 0-9.3-.1-2.1.8-2.8 2.7-3.1 2.6-.4 5.2-1 7.7-1.5.7 2.5 1.5 5 2 7.5 1.5 7.9 2.9 15.9 4.3 23.9.2 1.1.1 2.3.2 3.5.2 1.4-.5 2.3-1.7 2.6-3.7.9-7.3 1.8-11 2.6-2 .4-2.9-.4-3-2.6-.3-8.1-.8-16-1.2-23.6z"/><path class="st11" d="M322.4 334.9c-1 0-2.1.2-2-1.4l.2-.4c1.6-5.7.7-7.4-6.1-9.1-5.8-1.4-11.8-1-17.7-1-3.9 0-6.4 2-6.5 5.8-.1 2.9.5 5.9.7 8.8.4 6.6.7 13.1 1 19.7 0 .2-.4.4-.7.6-4.8-10.2-6.9-21-6-32.2.3-3.4.6-6.9 2.4-10 1.7-2.9 4.3-4.3 7.4-3.5 10.1 2.6 19.9 5.8 28.8 11.3 2.8 1.8 5.7 3.3 9 4 .7.2 1.3.9 1.9 1.3-.6.7-1 1.8-1.7 2.1-1.9.8-4.1 1.3-6.1 2-1.4.7-3 1.4-4.6 2z"/><path class="st8" d="M199.2 202.1l-1.4 8.7c-.5 2.7-1.5 5.4-1.5 8.1 0 2.7.9 5.4 1.4 8.1l.4 3.4c-6.4-7.9-9.7-16.9-8.8-27.1.9-9 7.3-18.4 19.6-20.1 8.4-1.2 14.7 4 16.7 13.4l-3.1-.6c-1.5-.3-3-.6-4.6-.9-1.3-.7-2.5-1.5-3.9-2.1-6.7-2.9-13-.6-15.1 6.7-.2.9-1.1 1.8.3 2.4z"/><path class="st5" d="M393.5 456.9c-1.8-12.1-3.6-24.2-5.4-36.1.8-.4 1.1-.7 1.3-.7 10.3-.2 8.9-2.3 12.7 8.8 2.8 8 3.8 16.5 3.8 25-1.7.4-3.5.6-5.1 1.2-2.3 1-4.6 2.2-7.3 1.8z"/><path class="st7" d="M425.2 328c-1.6-.8-3.3-1.3-4.7-2.3-8.5-6.1-16.9-12.4-25.3-18.6-.7-.9-1.5-1.7-2.1-2.6-1.5-2-3.4-3.6-5.8-4.5-3.8-1.4-3.9-2-.8-4.7 2.1-1.8 4.3-3.5 6.8-5.5 1 .9 2.2 1.8 3.2 2.8 5.9 5.6 11.7 11.2 17.7 16.7 2.2 2 4.5 3.9 6.8 5.7 3.5 2.8 5.1 6.4 4.4 10.9-.2.7-.2 1.4-.2 2.1z"/><path class="st5" d="M367.6 359.1c-.1 11.9-.7 23.8-2.6 35.6-.1.5-.4.9-.6 1.3-.3-.1-.7-.2-.9-.4-2.8-5.6-5.5-11.2-8.2-16.8 1.4.5 2.7 1.2 4.1 1.4 1.6.3 2.9-.6 3.5-2.1.7-1.5.2-2.9-.9-4-1.2-1.1-2.6-1.5-4-.8-1.8.9-3.2 2.2-2.8 4.6-.3-.2-.7-.2-.8-.5-2.6-5.9-5.2-11.9-7.7-17.8-.2-.4-.2-1 .1-1.3 1.4-1.8 2.7-3.7 4.4-5.2 1-.8 2.3-1.3 4-.3 3.9 2.4 8.2 4.3 12.4 6.3zm-8.2.4c-.1-1.9-1.7-3.5-3.5-3.5-2 0-3.7 1.8-3.7 3.9.1 2.2 1.7 3.6 4 3.4 2-.3 3.3-1.7 3.2-3.8z"/><path class="st10" d="M225.4 114.1c-3.8 1.9-7.8 3.3-11.9 4l-.6-.9c1.9-2.7 3.6-5.5 5.7-8 5.7-6.9 12.6-12.3 20.3-16.8 7.7-4.6 15.9-8.3 24.4-11.2.8-.3 1.6-.7 2.4-.6 1.2.2 2.3.7 3.5 1.1-.6.9-1 2.2-1.8 2.7-3.2 2.1-6.5 3.9-9.8 5.8-.8.1-1.6.1-2.3.4-3.2 1.7-6.4 3.3-9.5 5.2-8.1 4.9-15.2 10.5-20.4 18.3zM367.6 359.1c-4.2-2.1-8.6-3.9-12.6-6.3-1.7-1-3-.5-4 .3-1.7 1.5-3 3.4-4.4 5.2-.2.3-.2 1-.1 1.3 2.5 6 5.1 11.9 7.7 17.8.1.2.5.3.8.5.2.3.2.6.2.9l8.2 16.8c.1.2.6.3.9.4l-1.3 6.6-.9.2c-2.6-5.7-5.2-11.4-7.9-17.1-3.8-8.1-7.5-16.3-11.5-24.3-1.6-3.2-4-6.1-6.3-9.5 1.4-2.1 2.6-4.5 6.2-3.9 1.3.2 3-.3 4.3-1.1 4.3-2.6 8-1.7 11.9 1.2 2.6 1.9 5.7 3.1 9.3 4.9 0 1.6-.2 3.9-.5 6.1zM237.2 127c-13.4 1.8-25.2 6.7-32.9 18.5-3.2 4.9-5.1 10.3-5.1 16.3 0 4.5.3 8.9.5 13.4-.5.6-.9 1.3-1.9 2.6-.5-2.2-1.1-3.7-1.2-5.2-.3-7.8-1-15.6.7-23.3 1.2-5.5 3.4-10.3 7.5-14.3 8.1-8 18-12.1 29.1-13.7 1.7-.3 2.6.4 2.9 1.9.2 1.2.2 2.5.4 3.8z"/><path class="st7" d="M255.4 371.1c.6.1 1.4.1 1.8.5 3.5 3.5 6.4 7 6.2 12.7-.4 10.6-.1 21.2-.1 31.8-.6.3-1.2.7-1.8.8-4.6.9-5 .4-6.3-4.3-1.1-3.8-.9-7.5-.8-11.3.2-10.1.6-20.2 1-30.2z"/><path class="st11" d="M389.2 317c-4.4-.1-8.7.6-12.9 2-3.9 1.2-5 2.8-5.1 6.6 0 1.7.1 3.3 0 5-.1 2.8-1.5 4.2-4.1 4.4-.8.1-1.7-.1-2.5.1-2.3.4-3.3 1.5-3.4 3.8l-.1 3.5c-.3-.1-.7-.1-.9-.3-2.3-1.8-.7-4.6-1.5-6.9-.7-2.1 1.1-3.5 4.7-4.3l2.4-.7c.6-.1 1.3-.2 2-.9-2-.4-4-.9-6.1-1.1-3.5-.3-3.5-.2-4.7-3.5-.2-.6-.5-1.2-.7-1.7 4.6-3 9-5.9 13.4-8.7 3.2-2.1 6.5-3.8 10.4-4.5 4.2-.8 6.7.3 8.3 4.2.3.8.5 1.9.8 3z"/><path class="st9" d="M225.4 114.1c5.2-7.8 12.4-13.4 20.3-18.2 3.1-1.9 6.3-3.5 9.5-5.2.7-.3 1.5-.3 2.3-.4-.5.8-.8 1.9-1.5 2.3-3.7 2.2-5.8 5.7-8 9.1-2.2 3.5-4.6 6.8-6.9 10.1-1.2 1.7-3 2.3-5.2 2.3-3.6-.2-7.1 0-10.5 0z"/><path class="st7" d="M379.2 434c-3.5 1.1-7.1 2.3-10.6 3.3-1.7.5-3.5.5-5.3.7l-.1-11.9c0-2.7.7-3.7 3.2-4 3.1-.3 6.3-.3 9.4-.1.8.1 1.9 1.4 2.1 2.3.6 3.2.9 6.5 1.3 9.7z"/><path class="st5" d="M255 310.2c7 3.6 14.6 2.8 21.9 3.8 3.5.5 3.5.4 2.6 4-1.6 6.5-1.6 6.6-7.9 4.7-5.2-1.6-10.4-3.5-14.8-6.9-1.6-1.3-3.4-2.8-1.8-5.6z"/><path class="st8" d="M379.1 127c-2.1.4-3.6-.2-3.8-1.8-.5-4.4.4-8.4 3.2-11.9 2.9-3.6 6.5-5.8 11.2-6.3.5 0 1-.6 1.5-.9 2.6 3.1 5.1 6.2 7.9 9.6-13.4-1.4-18.8 1.8-20 11.3z"/><path class="st3" d="M326 313.1c2.7.4 5.1.9 7.5 1 6.4.5 12.5-1.2 18.7-2.6 2.8-.6 5.6-1.2 8.7-1.1-3.4 2.7-6.7 5.4-10.1 8-.9.7-2 1.4-3.1 1.4-7.5.6-14.6-.5-20.7-5.3-.4-.1-.5-.6-1-1.4z"/><path class="st7" d="M252.3 435c-4.5-.7-9-1.8-13.5-1.8-5.1 0-8.5-3-12.3-5.4-.4-.3-.6-.7-1.2-1.5 1.2-.1 2.1-.2 3-.3 3.3 1.6 6.7.9 10.2.5 3.4-.3 6.9-.2 10.3.3 3.5.6 3.4.9 3.5 4.2 0 1.3-.1 2.7 0 4z"/><path class="st10" d="M393.5 456.9c2.7.4 5-.8 7.4-1.8 1.6-.6 3.4-.8 5.1-1.2.1 1 .3 2 .3 3-.1 2.4-.4 4.8-.6 7.2-3 1-5.9 2-8.9 2.8-1.2.3-2.3 0-2.4-1.7-.3-2.7-.6-5.5-.9-8.3z"/><path class="st6" d="M346.2 326.1c4.4.7 6.4 3.3 6 7.8-.3 3.8-3.4 7-6.9 7-2.5 0-3.4-.8-4.2-3.6l-.7-2.3c2.4.4 4-.9 4.7-2.8.8-1.9.8-4.1 1.1-6.1z"/><path class="st11" d="M346.2 326.1c-.3 2.1-.4 4.2-1.1 6.2-.7 1.9-2.3 3.2-4.7 2.8-.1-.5-.1-1-.2-1.4-1.4-6.2-.4-7.4 6-7.6zM335.3 339c-4.5 2-8.4 0-12.2-2.1-.5-.3-.6-1.3-.9-2 2.9.4 5.9.6 8.7 1.3 1.8.4 3.8.7 4.4 2.8z"/><path class="st8" d="M226.2 198l-.7-1.2.7 1.2z"/><path class="st6" d="M410.3 404l-.4.8c.1-.3.2-.6.4-.8z"/><path class="st4" d="M302.2 374l.5-.8c-.1.3-.3.6-.5.8z"/><path class="st2" d="M347 225.1c1.2 6.6 2.7 7.9 9.1 8 5.4 0 10.4-1.7 15.3-3.7 4.3-1.8 8.5-3.8 12.7-5.8 5.6-2.6 7.2-8.6 3.4-13.5-2.4-3.2-5.2-6-7.8-9.1-6.4-7.7-12.7-15.4-16.8-24.6-2-4.6-3.3-9.3-3.7-14.4-.1-.8-.1-1.7.1-2.5.2-1.3 1.7-1.9 2.6-1 .6.6 1.1 1.3 1.3 2.1 1.8 7.4 6.1 13.6 10.4 19.6 6.8 9.4 14 18.6 22.8 26.4 2.8 2.5 3.3 5.1 2.2 8.5l-2.4 7.6c-.3.9-.9 1.8-1.7 2.3-9.6 6.3-19.6 12-31.1 13.8-4.7.8-9.6.5-14.3.6-2.1.1-3.4-1.1-4.3-2.8-2.6-4.6-3.2-9.4-.6-14.2.3-.5 1.2-.6 1.8-.9.4 1.1.7 2.4 1 3.6zM374.5 268c-1.9 4.6-4.8 6.7-8.8 7.7-9.3 2.2-18.7 3.1-28.1 1.1-5.5-1.2-10.2-3.8-13.7-8.4-3.4-4.5-7.1-8.8-10.6-13.1-1.4-1.7-1.5-3.1-.3-3.8 1.6-.9 3.7-.4 4.5 1.2 5 9.5 13.7 12.8 23.6 14.5 9.1 1.5 18.2.9 27.4.9 1.8-.1 3.6-.1 6-.1zM318.9 239.9c14.1 5.6 27.9 6 41.8 6.1 7.1 0 6.4-1.5 6.6 6.7.2 5.6.7 5.2-4.9 5.2-9.9 0-19.5-1.3-28.7-5-6-2.4-11.5-5.8-14.8-13zM319.2 156c.2-1.3.3-2.6.6-4.7 1 1.5 1.7 2.4 2.2 3.4 1.1 2.4 2.1 4.9 3.1 7.3 1.6 3.9 3.8 7.4 7 10.2 1 .9 2 1.8 2.7 2.9 2.4 3.4 2.2 7.6-.8 10.4-1.6 1.5-3.7 3.1-5.8 3.7-6.4 1.6-12.8 1.6-19-1.2-2.4-1.1-4.2-2.7-3.9-5.7.2-2.7 1-3.6 3.8-3.3 3.1.4 6.2.9 9.3 1.6 2.9.6 5.6 0 8.3-.9 1.4-.5 2.2-1.5 1.1-3.1s-2.1-3.4-3.1-5c-2.3-5.1-4.7-10.1-5.5-15.6zM306.3 120c.9.7 2.1 1.2 2.8 2 1 1.2 2.1 2.6 2.5 4.1.8 2.7-.6 4-3.3 3.7-2.3-.2-4.6-.7-6.9-.4-8.6.8-14.6 5.6-19.1 12.6-1.6 2.5-3 5.1-4.5 7.8-2.7-.5-2.8-2.8-3.4-4.8 0-1.1-.3-2.4.1-3.4 3.4-7.8 8.3-14.5 15.8-19 5-2.9 10.2-4.5 16-2.6zM371.9 256.6c-.1-1.1-.4-2.2-.4-3.3.1-2.5-.5-5.5.7-7.2 1-1.4 4.1-1.5 6.3-2 6.4-1.5 12.1-4.6 17.8-7.6 2.1-1.1 4.3-2.3 6.6-3.6-1.3 12-18.1 24.7-31 23.7zM399.2 156c.1-1.6.2-3.2.3-6 1.2 2 1.9 3 2.5 4.1 3.4 6.6 6.6 13.3 10.1 19.8 1 1.8.8 2.9-.5 4.3-5 5-11 7.2-18 6.6-2.5-.2-4.3-1.7-5.5-3.8-1.8-3-1-4.7 2.5-5.3 2.3-.4 4.6-.5 6.9-.8 2.3-.3 4.5-.7 7.5-1.2-1-2.4-1.8-4.3-2.5-6.1-1.2-3.8-2.2-7.7-3.3-11.6zM199.2 202.1c-1.4-.7-.6-1.6-.3-2.4 2.1-7.3 8.4-9.5 15.1-6.7 1.3.6 2.6 1.4 3.9 2.1 4.6 4.8 7 10.4 6.3 17.2-.1.6-.3 1.2-.5 2.1-2.6-1.3-3.2-3.6-4.3-5.6-.9-1.6-1.5-3.4-2.6-4.8-2.3-3-5.5-2.6-7 1-.9 2.2-1.3 4.8-1.5 7.3-.2 3.4-.1 6.9-.1 10.8-4.6-5.6-5-9.4-2.9-23.7-3-1.5-4.3 1.2-6.1 2.7z"/><path class="st8" d="M319.2 156c.9 5.5 3.2 10.5 5.4 15.6-3.1 4.1-7.6 1.8-11.4 2.4-2.4.3-4.5-.3-6.4-2-3.3-3.1-3.1-8.6.8-11.6 3.3-2.5 7-4.7 11.6-4.4zM306.3 120c-5.8-1.9-11-.2-16 2.7-7.5 4.5-12.4 11.1-15.8 19-.4 1-.1 2.2-.1 3.4-1.4-.5-2-1.5-2.1-3-.3-5.4.4-10.4 3.9-14.9 4.6-5.9 9.9-10.5 17.2-12.7 5.1-1.5 9.4-.3 12.4 3.7.3.4.3 1.1.5 1.8zM399.2 156c1 3.9 2.1 7.8 3.1 11.8-2.8 2.7-6.4 3.8-10.1 4.2-3.2.3-3.8-.5-4-3.5-.3-6.3 4.4-11.6 11-12.5zM313.2 244.8c-6.9 3.6-7 9.3-7.1 15.2-2-.6-3.6-.8-4-3.2-.3-2.5-1.4-5-1.8-7.5-.7-4.3 2-6.9 6.3-6.3 1.9.3 3.7 1 6.6 1.8zM347 225.1l-1-3.7c.3-3.6 1-7.1 3.4-10.1.9-1.2 2-1.8 3.3-.5 1.3 1.2 2.6 2.4 3.7 3.7 1.3 1.6 1 2.7-.9 3.9-3 2-5.6 4.5-8.5 6.7z"/><path class="st2" d="M418.3 427.6c5.3-6.6 11.9-10.2 20.6-9.2-6.6 3.7-12.1 9.6-20.6 9.2zM422.4 434.6c6.4-5 14.3-5.4 26.5-1.7-9.1 1.3-17.2 2.3-26.5 1.7zM422.6 445.4c10.2-4.7 19.6-1.3 30 .9-7.6 1.3-25.4.7-30-.9zM355.3 378.9c.1-.3 0-.6-.2-.9-.4-2.4 1-3.7 2.8-4.6 1.5-.8 2.9-.4 4 .8 1.2 1.1 1.6 2.5.9 4-.6 1.5-1.9 2.4-3.5 2.1-1.3-.3-2.7-1-4-1.4zM359.4 359.5c.1 2.1-1.1 3.5-3.2 3.7-2.3.2-3.9-1.1-4-3.4-.1-2.1 1.6-3.9 3.7-3.9 1.8.1 3.4 1.7 3.5 3.6z"/></svg>