<?xml version="1.0" encoding="utf-8"?>
<!-- Generator: Adobe Illustrator 19.2.1, SVG Export Plug-In . SVG Version: 6.00 Build 0)  -->
<svg version="1.1" id="Calque_1" xmlns="http://www.w3.org/2000/svg" xmlns:xlink="http://www.w3.org/1999/xlink" x="0px" y="0px"
	 viewBox="0 0 600 600" style="enable-background:new 0 0 600 600;" xml:space="preserve">
<style type="text/css">
	.st0{fill:none;}
	.st1{fill:#E24329;}
	.st2{fill:#FC6D26;}
	.st3{fill:#FCA326;}
</style>
<rect x="0" class="st0" width="600" height="600"/>
<g>
	<path class="st1" d="M499.3,326.4c-3.4-10.5-22.4-68.9-22.4-68.9l0,0c0,0-43.5-134-44.4-136.5c0,0-1.8-5.3-7.3-5.3S418,121,418,121
		c-0.8,2.5-44.4,136.5-44.4,136.5H226.3c0,0-43.5-134-44.4-136.5c0,0-1.8-5.3-7.3-5.3s-7.3,5.3-7.3,5.3
		c-0.8,2.5-44.4,136.5-44.4,136.5h0c0,0-19,58.3-22.4,68.9c-2.1,6.4,0.4,13.3,5.5,17L300,484.2l193.7-140.7
		C498.9,339.7,501.3,332.8,499.3,326.4z"/>
	<polygon class="st2" points="300,484.2 226.3,257.6 123.1,257.6 	"/>
	<path class="st3" d="M123.1,257.6c0,0-19,58.3-22.4,68.9c-2.1,6.4,0.4,13.3,5.5,17L300,484.2L123.1,257.6z"/>
	<path class="st1" d="M182,121c0,0-1.8-5.3-7.3-5.3s-7.3,5.3-7.3,5.3c-0.8,2.5-44.4,136.5-44.4,136.5h103.2
		C226.3,257.6,182.8,123.5,182,121z"/>
	<polygon class="st1" points="226.3,257.6 300,484.2 373.7,257.6 	"/>
	<polygon class="st2" points="300,484.2 373.7,257.6 476.9,257.6 	"/>
	<path class="st3" d="M476.9,257.6c0,0,19,58.3,22.4,68.9c2.1,6.4-0.4,13.3-5.5,17L300,484.2L476.9,257.6z"/>
	<path class="st1" d="M418,121c0,0,1.8-5.3,7.3-5.3s7.3,5.3,7.3,5.3c0.8,2.5,44.4,136.5,44.4,136.5H373.7
		C373.7,257.6,417.2,123.5,418,121z"/>
</g>
</svg>
