<?xml version="1.0" encoding="utf-8"?>
<!-- Generator: Adobe Illustrator 15.1.0, SVG Export Plug-In . SVG Version: 6.00 Build 0)  -->
<!DOCTYPE svg PUBLIC "-//W3C//DTD SVG 1.1//EN" "http://www.w3.org/Graphics/SVG/1.1/DTD/svg11.dtd">
<svg version="1.1" id="Calque_1" xmlns="http://www.w3.org/2000/svg" xmlns:xlink="http://www.w3.org/1999/xlink" x="0px" y="0px"
	 width="225.059px" height="59.96px" viewBox="37.441 120.078 225.059 59.96" enable-background="new 37.441 120.078 225.059 59.96"
	 xml:space="preserve">
<g>
	<g id="XMLID_754_">
		<g>
			<path id="XMLID_775_" fill="#FFFFFF" d="M121.65,163.95c0.15,0.3,0.15,0.45-0.3,0.45h-1.5c-0.15,0-0.3,0-0.45-0.301l-4.05-5.1
				c-1.8-2.25-3.45-4.5-6.6-4.5h-1.05v9.6c0,0.301-0.15,0.301-0.3,0.301h-1.2c-0.3,0-0.3-0.15-0.3-0.301V133.2
				c0-0.3,0.15-0.3,0.3-0.3h1.2c0.3,0,0.3,0.15,0.3,0.3v19.5h1.05c2.55,0,4.8-2.55,6.6-4.65l4.05-4.8c0.15-0.15,0.3-0.3,0.45-0.3
				h1.5c0.3,0,0.45,0.3,0.3,0.45l-4.65,5.4c-1.65,1.95-3.3,3.9-4.8,4.351c-0.3,0.149-0.3,0.3,0,0.449c1.8,0.601,3.3,2.4,5.1,4.5
				L121.65,163.95z"/>
			<path id="XMLID_772_" fill="#FFFFFF" d="M141.3,153.75c0,6.9-3.6,11.25-9.6,11.25s-9.6-4.35-9.6-11.25c0-6.9,3.6-11.25,9.6-11.25
				S141.3,146.85,141.3,153.75z M124.2,153.75c0,5.85,2.85,9.3,7.65,9.3c4.8,0,7.65-3.45,7.65-9.3c0-5.85-2.85-9.3-7.65-9.3
				C127.05,144.45,124.2,147.9,124.2,153.75z"/>
			<path id="XMLID_769_" fill="#FFFFFF" d="M162,164.1c0,0.301-0.15,0.301-0.3,0.301h-1.05c-0.301,0-0.301-0.15-0.301-0.301v-3.149
				c0-0.45-0.3-0.45-0.6,0c-1.65,2.399-4.05,4.05-7.2,4.05c-5.7,0-9-4.35-9-11.25c0-7.05,3.45-11.1,9.45-11.25
				c2.1,0,3.75,0.3,5.7,1.2l1.35,0.75V133.2c0-0.3,0.15-0.3,0.3-0.3h1.2c0.3,0,0.3,0.15,0.3,0.3V164.1H162z M158.1,145.5
				c-1.5-0.75-3-1.05-5.1-1.05c-4.8,0-7.65,3.45-7.65,9.3c0,5.7,2.7,9.3,7.2,9.3c5.101,0,7.5-4.35,7.5-10.2v-6.45L158.1,145.5z"/>
			<path id="XMLID_766_" fill="#FFFFFF" d="M184.65,153.75c0,6.9-3.601,11.25-9.601,11.25c-5.85,0-9.6-4.35-9.6-11.25
				c0-6.9,3.6-11.25,9.6-11.25C180.9,142.5,184.65,146.85,184.65,153.75z M167.4,153.75c0,5.85,2.85,9.3,7.649,9.3
				s7.65-3.45,7.65-9.3c0-5.85-2.851-9.3-7.65-9.3S167.4,147.9,167.4,153.75z"/>
			<path id="XMLID_764_" fill="#FFFFFF" d="M208.2,163.8c0.3,0.45,0,0.75-0.45,0.75h-6.45c-0.3,0-0.6-0.149-0.75-0.45l-2.399-4.8
				c-0.9-1.649-1.801-2.85-3.9-2.85h-0.3v7.5c0,0.3-0.3,0.6-0.601,0.6h-6c-0.3,0-0.6-0.3-0.6-0.6V132.3c0-0.3,0.3-0.6,0.6-0.6h6
				c0.301,0,0.601,0.3,0.601,0.6v17.85h0.45c1.949,0,2.699-1.5,3.6-3.15l2.25-4.35c0.15-0.3,0.3-0.45,0.75-0.45h6.45
				c0.45,0,0.6,0.3,0.45,0.75L204.3,150c-0.75,1.5-1.95,2.4-3.3,3c-0.15,0-0.15,0.3,0,0.3c1.35,0.601,2.85,1.65,3.6,3L208.2,163.8z"
				/>
			<path id="XMLID_761_" fill="#FFFFFF" d="M229.05,153.45c0,7.05-4.2,11.55-10.95,11.55s-10.949-4.5-10.949-11.55
				c0-7.05,4.199-11.55,10.949-11.55S229.05,146.4,229.05,153.45z M214.05,153.45c0,3.3,1.5,5.25,4.05,5.25c2.4,0,3.9-1.95,3.9-5.25
				c0-3.3-1.5-5.25-3.9-5.25C215.7,148.2,214.05,150.15,214.05,153.45z"/>
			<path id="XMLID_758_" fill="#FFFFFF" d="M239.1,163.8c0,4.5-2.1,7.65-6.75,10.351l-1.05,0.6c-0.3,0.3-0.6,0.15-0.75-0.3
				l-2.55-4.8c-0.15-0.301-0.15-0.601,0.3-0.75l0.75-0.45c1.95-1.2,3-2.55,3-4.65v-15.15h-2.399c-0.301,0-0.601-0.3-0.601-0.6v-5.1
				c0-0.3,0.3-0.6,0.601-0.6h8.85c0.3,0,0.6,0.3,0.6,0.6V163.8L239.1,163.8z M239.1,135.3c0,2.55-1.5,4.2-4.05,4.2
				s-4.05-1.65-4.05-4.2c0-2.55,1.5-4.05,4.05-4.05S239.1,132.75,239.1,135.3z"/>
			<path id="XMLID_755_" fill="#FFFFFF" d="M262.5,153.45c0,7.05-4.2,11.55-10.95,11.55s-10.95-4.5-10.95-11.55
				c0-7.05,4.2-11.55,10.95-11.55S262.5,146.4,262.5,153.45z M247.5,153.45c0,3.3,1.5,5.25,4.05,5.25c2.4,0,3.9-1.95,3.9-5.25
				c0-3.3-1.5-5.25-3.9-5.25C249,148.2,247.5,150.15,247.5,153.45z"/>
		</g>
	</g>
	<g id="XMLID_683_">
		<path id="XMLID_743_" fill="#FFFFFF" d="M83.1,174.9c-1.05-0.601-1.8-1.351-2.55-2.101c-1.35-0.6-2.4-1.649-3.3-2.85
			c-0.6-0.601-1.35-1.351-1.65-2.101c0,0,0,0-0.15,0c0,0,0,0,0,0.15c-0.15-0.15-0.3-0.3-0.45-0.45c0-0.3,0.45-0.149-0.3-0.45
			c0.15,0.15,0.3,0.15,0.3,0.301c-0.3-1.2-3.6-2.4-3.9-4.051c-1.2-1.5-2.7-2.85-4.05-4.35c-0.6-0.75-1.5-2.25-2.4-2.7
			c-0.15,0-0.3-0.6-0.45-0.6c0.15,0-1.05,0.45-0.9,0.75c-0.15,0.149-0.3,0.3-0.45,0.45c0,0.149,0.15,0.3,0.15,0.449V157.2
			c0.15,0,0,0.3,0,0.3c0,0.15,0,0.3,0,0.3h-0.15c0,0-0.3,0.601-0.15,0.601c-0.15,0-0.45-0.15-0.45-0.45
			c0,0.149-0.15,0.149-0.3,0.149c0,0.45,0,0.75,0,1.2l0.15-0.149c-0.15,0-0.15-0.15,0-0.301c0.3,0.301,0.45,0.601,0.6,0.9
			c0,0-0.15,0-0.15,0.15c0.15,0,0.45,0,0.3,0.149c0.3-0.149,0.15,1.2-0.6,0.9v-0.15c-0.15,0-0.15,0.15-0.15,0.15l-0.15-0.15v-0.149
			c-0.15,0.3-0.6,1.5-0.15,1.8c0,0.149-0.15,0.149-0.3,0c0.15,0.3-0.15,0.6-0.15,0.899c0.15-0.149,0.15,0.15,0.15,0.15
			c0.15-0.15,0.15-0.3,0.3,0c-0.3,0.3,0.45,0.9-0.3,0.9c0,0.149,0,0.3,0.15,0.3v-0.15c0,0.15,0,0.15,0,0.3h0.15
			c0,0.15,0,0.301-0.15,0.301c0-0.15,0-0.15,0-0.301c0,0.15-0.15,0.15-0.15,0.301h0.15c0.3,0.6-0.45,0.899-0.3,1.199h0.15
			c0,0.75-0.6,1.5-0.6,2.101c0-0.15-0.15-0.15-0.15-0.15c0,0.15,0,0.3,0,0.3c-0.15,0.15-0.3,0.45-0.3,0.75c0,0-0.15-0.149-0.15,0
			l-0.6,1.2c-0.15-0.149-0.15-0.3-0.15-0.45c0,0.15-0.15,0.301,0,0.601c-0.15,0-0.15-0.15-0.15-0.3
			c-0.15,0.149-0.3,0.149-0.15,0.449c0.15,0,0.3,0,0.45,0c0,0-0.9,2.101-0.75,2.101c-0.3,0.149-0.45,0.899-0.75,1.2
			c-0.15,0.3-0.75,1.05-0.75,1.199c-0.15,0.75-0.3,0.15,0.3,0.45c-0.3,0.3-0.45,0.601-0.6,0.9c0,0,0,0-0.15,0
			c-0.15,0.3-0.3,0.6-0.6,0.75c0,0,0,0,0,0.149c0,0.15-0.15,0.15-0.3,0.15c9,3.75,19.5,2.85,27.75-2.4
			C83.55,175.2,83.25,175.05,83.1,174.9C82.35,174.6,83.25,175.05,83.1,174.9z M62.7,158.85v0.45c-0.15,0-0.3-0.6-0.3-0.6
			c0.45-0.3-0.3,0-0.15,0c-0.3,0,0.15-0.601,0.3-0.601c0,0,0,0.301,0,0.45c0,0,0,0,0.15,0C62.55,158.7,62.55,158.7,62.7,158.85
			L62.7,158.85L62.7,158.85z M62.1,162.15C62.1,162.3,62.1,162.3,62.1,162.15c-0.15,0-0.15-0.301-0.15-0.45
			C62.1,161.85,62.1,162,62.1,162.15z M62.4,162.75c0,0.15,0,0.3,0,0.45C62.1,163.2,62.1,163.05,62.4,162.75l-0.15-0.15
			C62.4,162.45,62.4,162.45,62.4,162.75z M62.55,161.55L62.55,161.55c0,0.45-0.45,1.05-0.45,0.3l0.15,0.15c0,0,0.3-0.6,0.15-0.75
			c0.15,0,0.15,0,0.3,0C62.85,161.4,62.7,161.55,62.55,161.55z M63.3,156.9C63.3,156.9,63.3,156.75,63.3,156.9l0.3-0.15v0.3
			C63.3,156.9,63.3,156.9,63.3,156.9L63.3,156.9z M63,159.6C63,159.75,63,159.75,63,159.6c-0.15,0-0.15-0.149,0-0.149
			C63,159.6,63,159.6,63,159.6C63,159.75,63,159.6,63,159.6z M63,158.25L63,158.25C63,158.1,63,158.1,63,158.25
			c0.15,0,0.15,0.15,0.15,0.3H63C63,158.4,63,158.25,63,158.25L63,158.25z M63.45,159.3c-0.15-0.149-0.3,0-0.3-0.149l0.3-0.301
			c0.15,0,0,0.301,0,0.301C63.3,159.15,63.45,159.15,63.45,159.3C63.45,159.15,63.45,159.3,63.45,159.3
			C63.3,159.3,63.45,159.3,63.45,159.3z M63.45,158.4c-0.15,0.6-0.15-1.351,0-0.601c0,0,0,0,0.15,0
			C63.6,157.95,63.6,158.25,63.45,158.4C63.45,158.55,63.6,158.25,63.45,158.4z"/>
		<path id="XMLID_742_" fill="#FFFFFF" d="M66.15,148.65L66.15,148.65c-0.15,0-0.3,0-0.3,0l-0.15-0.15l0,0
			c0,0.15,0.15,0.15,0.3,0.15c0,0.15,0,0.15,0.15,0.15l0,0c0,0.15,0.15,0.15,0.15,0.15l0.15-0.15c0,0,0,0-0.15-0.15
			C66.15,148.8,66.15,148.8,66.15,148.65C66.15,148.8,66.15,148.65,66.15,148.65L66.15,148.65z"/>
		<path id="XMLID_741_" fill="#FFFFFF" d="M65.1,154.65c-0.15,0,0,0.149,0,0.149C65.25,154.95,65.25,154.65,65.1,154.65
			C64.95,154.8,65.25,154.65,65.1,154.65z"/>
		<path id="XMLID_740_" fill="#FFFFFF" d="M65.25,155.4L65.25,155.4L65.25,155.4l0.15-0.301c0-0.149,0-0.149,0-0.149
			C65.25,155.1,65.25,155.25,65.25,155.4z"/>
		<path id="XMLID_739_" fill="#FFFFFF" d="M66.45,148.65L66.45,148.65l0.15-0.15c0,0,0,0-0.15,0V148.65c-0.15,0-0.15,0.15,0,0.15
			V148.65z"/>
		<path id="XMLID_738_" fill="#FFFFFF" d="M66.15,156L66.15,156v0.15c0.15,0,0.3,0,0.3,0v0.149l0,0l0,0l0,0v0.15
			c0-0.15-0.15-0.3-0.15-0.3h0.15c-0.15,0-0.15,0.149-0.15,0.3l0,0c0.15,0,0.3,0,0.3,0.149v-0.149c0,0,0,0,0-0.15c0,0,0,0,0-0.149
			c0,0-0.15,0-0.15-0.15c0,0,0,0,0-0.15c0,0,0.3,0,0,0l0,0l0,0c0,0,0,0-0.15,0c0,0,0,0-0.15,0C66.3,156,66.3,156,66.15,156
			L66.15,156L66.15,156z"/>
		<path id="XMLID_737_" fill="#FFFFFF" d="M68.85,160.2L68.85,160.2L68.85,160.2c0,0.149,0,0.149,0,0.3l0,0l0,0
			c0,0.15,0,0.15,0,0.15L68.7,160.8c0,0,0-0.149,0.15-0.149L69,160.8c0.3,0.3,0,0.3,0.15,0.15c0.15,0,0.15,0,0.15,0.149
			C69.3,160.65,69.15,160.35,68.85,160.2C68.85,160.2,69,160.35,68.85,160.2z"/>
		<path id="XMLID_736_" fill="#FFFFFF" d="M70.35,162c-0.15-0.3-0.3-0.45-0.45-0.75C69.75,161.4,70.35,162.15,70.35,162
			c0,0.15,0,0.3,0,0.3c0.15,0,0.15,0.15,0.3,0.15c0,0.149,0,0.149,0.15,0.3l0,0c0,0.15,0.15-0.15,0.3,0c0,0,0-0.45,0.15-0.45l0,0
			c0,0,0.15,0.45,0.3,0.601c0-0.301-0.6-0.601-0.75-0.75c0,0-0.15-0.301-0.3-0.301S70.35,162,70.35,162
			C70.2,161.7,70.35,162,70.35,162z"/>
		<path id="XMLID_735_" fill="#FFFFFF" d="M57.15,155.7L57.15,155.7c0.15,0,0.15-0.3,0.3-0.3l0.15-0.15h0.3c0.15,0,0.3,0,0.45-0.15
			c0,0,0,0,0.15,0c0,0,0,0,0.15,0l0,0c-0.15,0-0.15,0-0.3,0c-0.15,0.15-0.3,0.45-0.45,0.45s-0.3,0.3-0.45,0.3H57.3
			c-0.15,0-0.15-0.449-0.15-0.449c-0.15,0-0.15-0.301-0.3-0.15l0,0c0,0,0,0,0,0.15l0,0v-0.15v0.3C57,155.4,57,155.7,57.15,155.7
			L57.15,155.7L57.15,155.7z"/>
		<path id="XMLID_734_" fill="#FFFFFF" d="M56.4,145.8C56.55,145.8,56.55,145.95,56.4,145.8C56.55,145.8,56.55,145.8,56.4,145.8
			c0.3,0,0.3,0,0.45,0c0.15-0.15,0.15-0.15,0.15-0.15l0,0h-0.15c0,0,0,0-0.15,0l0,0c-0.15,0-0.15,0-0.15,0S56.4,145.65,56.4,145.8
			L56.4,145.8z"/>
		<path id="XMLID_733_" fill="#FFFFFF" d="M71.7,163.8v0.15c0.15,0.149,0.15,0.149,0.15,0.149v-0.149h0.3c0,0,0-0.15-0.15-0.15l0,0
			l0,0c0,0-0.15-0.149-0.15-0.3l0,0v0.15l-0.15-0.15c-0.15,0-0.15,0-0.15,0C71.55,163.65,71.55,163.8,71.7,163.8
			C71.7,163.95,71.55,163.8,71.7,163.8z"/>
		<path id="XMLID_732_" fill="#FFFFFF" d="M60.45,148.2L60.45,148.2l0.15,0.15c0,0.15,0.15,0.15,0.3,0.15c0-0.15,0-0.3,0-0.3h-0.15
			c0,0,0,0-0.15,0.15c-0.15,0-0.15-0.15-0.15-0.3c0,0,0-0.15-0.15-0.15c0,0-0.15,0-0.15-0.15l0,0c0,0.15,0,0.3-0.15,0.45H60.45z"/>
		<path id="XMLID_731_" fill="#FFFFFF" d="M60.75,147.45L60.75,147.45l0.15,0.15h0.15v-0.15c-0.15,0-0.3-0.15-0.3-0.3
			C60.75,147.15,60.75,147.3,60.75,147.45L60.75,147.45z"/>
		<path id="XMLID_730_" fill="#FFFFFF" d="M67.65,143.1c0-0.15,0-0.15-0.15-0.3c0,0,0,0-0.15,0.15v0.15l0,0H67.65
			C67.5,143.1,67.5,143.1,67.65,143.1c-0.15,0-0.15,0.15-0.15,0.15s0,0,0.15,0V143.1z"/>
		<path id="XMLID_729_" fill="#FFFFFF" d="M68.25,141L68.25,141c0,0.15,0.15,0.15,0.15,0.15l0,0L68.25,141
			C68.4,141,68.25,140.85,68.25,141L68.25,141z"/>
		<path id="XMLID_728_" fill="#FFFFFF" d="M68.55,139.5L68.55,139.5c-0.15,0-0.15,0.15-0.3,0.15c0.15,0.15,0.15,0.15,0.15,0.15
			c0,0.15,0,0.3,0.15,0.45c0,0,0.15,0,0.15-0.15c0,0,0-0.15-0.15-0.15C68.7,139.8,68.7,139.8,68.55,139.5
			C68.7,139.65,68.55,139.5,68.55,139.5L68.55,139.5z"/>
		<path id="XMLID_727_" fill="#FFFFFF" d="M66.75,147.15L66.9,147v-0.15l0,0V147c0,0,0,0-0.15,0H66.6
			C66.75,147,66.75,147,66.75,147.15C66.9,147.15,66.75,147,66.75,147.15z"/>
		<path id="XMLID_725_" fill="#FFFFFF" d="M67.2,133.95C67.2,133.95,67.2,134.1,67.2,133.95c0.15,0,0.15,0.15,0.3,0.15v0.15
			c0,0,0-0.15,0,0.3h0.45l0,0c0,0,0,0,0,0.15c0-0.15,0-0.3,0-0.3H67.8l0,0h-0.15v-0.15C67.5,134.1,67.35,133.95,67.2,133.95
			L67.2,133.95L67.2,133.95z"/>
		<path id="XMLID_724_" fill="#FFFFFF" d="M68.1,141.9C68.1,141.9,67.95,141.9,68.1,141.9c-0.15,0-0.15,0.15-0.15,0.15h0.15
			c0,0,0,0,0.15,0c0,0,0.15,0,0.15-0.15H68.1C68.1,142.05,68.1,142.05,68.1,141.9z"/>
		<path id="XMLID_723_" fill="#FFFFFF" d="M67.8,129.75c0.15,0,0.15,0,0.3,0.15v-0.15l0,0l0,0c0-0.15-0.15-0.15-0.15-0.3l0,0
			C67.95,129.45,67.95,129.45,67.8,129.75c0-0.15,0.15-0.15,0.15-0.15S67.95,129.6,67.8,129.75
			C67.95,129.75,67.95,129.6,67.8,129.75z"/>
		<path id="XMLID_722_" fill="#FFFFFF" d="M68.85,137.25C68.7,137.4,68.7,137.4,68.85,137.25l-0.15,0.15h0.15V137.25
			C69,137.25,68.85,137.25,68.85,137.25z"/>
		<path id="XMLID_721_" fill="#FFFFFF" d="M86.7,172.8L86.7,172.8l0.15-0.3C86.7,172.65,86.7,172.65,86.7,172.8L86.7,172.8
			C86.55,172.8,86.55,172.8,86.7,172.8z"/>
		<path id="XMLID_720_" fill="#FFFFFF" d="M86.25,172.8h0.15c0-0.149-0.15-0.149-0.15-0.3c0,0,0,0-0.15,0c0,0,0,0,0-0.15
			c-0.15,0-0.15,0-0.15,0.15v0.15l0,0l0,0c0,0,0,0,0.15-0.15C86.1,172.65,86.1,172.65,86.25,172.8L86.25,172.8z"/>
		<path id="XMLID_719_" fill="#FFFFFF" d="M87.75,172.2C87.75,172.05,87.75,172.05,87.75,172.2c0-0.15,0-0.15-0.15-0.15l0,0
			L87.75,172.2L87.75,172.2C87.6,172.2,87.6,172.2,87.75,172.2z"/>
		<path id="XMLID_718_" fill="#FFFFFF" d="M87.3,172.2c-0.15-0.15-0.15-0.15-0.15,0v0.149c0,0.15,0,0.15,0.15,0.301l0.15-0.15H87.3
			C87.15,172.35,87.15,172.35,87.3,172.2C87.3,172.35,87.3,172.2,87.3,172.2C87.15,172.05,87.3,172.2,87.3,172.2z"/>
		<path id="XMLID_717_" fill="#FFFFFF" d="M72.45,164.25c0,0-0.15,0-0.15,0.15C72.45,164.25,72.45,164.25,72.45,164.25
			c0,0.15,0,0.15,0,0.3h0.15l-0.15,0.15H72.3c0,0,0,0.149,0.15,0.149L72.6,165v-0.3C72.6,164.4,72.6,164.25,72.45,164.25
			L72.45,164.25z"/>
		<path id="XMLID_713_" fill="#FFFFFF" d="M60.75,149.25c0,0-0.45-0.3-0.45-0.15c-0.15-0.15-0.15-0.3-0.15-0.45
			c0,0,0-0.15-0.15-0.15c-0.15-0.15-0.15-0.15-0.15-0.3c-0.15,0-0.3,0.15-0.3,0.3c0,0,0,0,0-0.15c-0.15,0.45-0.15-0.15-0.15-0.15
			v-0.15c-0.3-0.3,0,0.15-0.15,0.6c0.15,0.15,0,0.3-0.15,0.3l0,0c0.15,0-0.15-0.3-0.15-0.3c-0.15,0,0,0.45-0.15,0.45
			c-0.15,0-0.3-0.6-0.45-0.6s-0.45-0.15-0.45-0.3c-0.15,0-0.3,0-0.45,0c0,0,0,0-0.15,0c0-0.45-0.15,0-0.3,0
			c0.15-0.75-1.05,0.3-0.75,0.45c0,0,0,0,0,0.15v-0.15l0,0H56.1c0.6,0.45-0.45,0.3-0.45,0.75c0,0.15,0,0.15,0,0.3
			c0,0.3-0.15,0.45-0.3,0.45c0,0,0.15,0.15,0.15,0.3c0,0.149-0.15,0.149-0.15,0.3s0,0.3,0,0.45c0,0,0,0,0.15,0.149
			c0,0,0,0.15-0.15,0.15c0,0,0,0.15,0.15,0.15c-0.15,0.149-0.15,0.3-0.15,0.3l0,0h0.15l0,0l-0.15,0.149c-0.3,0.15,0,0.601,0,0.9
			c0.9,0,0.3,0.15,0.45,0.15c0,0,0.45,0,0.6,0.149c0.3-0.149,0.3,0.15,0.6,0.15c0.15,0,0.15,0.149,0.3,0.149
			c0.3,0,0.45-0.149,0.6-0.149c0.15-0.15,0.6-0.3,0.9-0.45l0,0c-0.15,0,0-0.15,0,0h0.15h0.3c0.15-0.15,0.3-0.15,0.45-0.15
			c0.15-0.149,0.3-0.149,0.45-0.3l0,0c0.15,0,0.15-0.149,0.15-0.3c0.15-0.45-0.3-0.75,0-1.2c0.15,0-0.15-0.149-0.15-0.149
			c-0.15-0.15-0.15-0.301-0.3-0.45c0,0,0,0,0.15,0s0.15,0,0.15-0.15c0-0.15-0.15-0.15-0.15-0.15c0-0.3,0.15,0,0.3,0
			c0.15,0.15,0.15,0.15,0.15,0.15c0-0.15,0-0.15,0-0.15l0,0H60.3c0-0.15,0-0.15,0-0.15l0,0c0,0,0,0,0-0.15c0,0,0,0,0.15,0
			c0-0.15,0-0.15-0.15-0.3c0,0,0,0.15-0.15,0.15l-0.3-0.45l0,0H59.7l0,0v-0.15l0,0c0,0,0,0,0.15,0l0,0c0.15-0.15,0.3,0,0.3,0.15
			h0.15c0.15,0.15,0.15,0.3,0.15,0.45l0.15,0.15h0.15c0-0.15,0-0.15,0-0.15c0-0.15,0.45-0.15,0.45,0c0,0,0.45-0.3,0.3-0.3
			C61.2,149.25,61.05,149.25,60.75,149.25z M56.55,148.5L56.55,148.5L56.55,148.5L56.55,148.5L56.55,148.5z M59.85,149.55
			c0.15,0.15,0.15,0.3,0,0.45c0,0,0-0.15-0.15-0.15C60,149.85,60,149.7,59.85,149.55c0,0.15-0.15,0.15-0.15,0.3
			c-0.15-0.15-0.15-0.3-0.3-0.45C59.7,149.25,59.85,149.4,59.85,149.55C60,149.7,59.85,149.4,59.85,149.55z"/>
		<path id="XMLID_712_" fill="#FFFFFF" d="M78.15,122.4c0,0.15,0,0.15,0,0.3c-0.45,0.3-1.05,1.65-1.2,2.1
			c-0.15,0.45-0.3,0.9-0.45,1.35c0,0.45-0.15,1.35-0.3,1.65c0.3,0.45,0.15,3.9,1.95,2.85c3-1.8,2.7-3.45,3.3-6.6
			c0.15-0.3,0-0.6-0.15-0.9c-0.9-0.45-1.95-0.9-3-1.35C78.3,122.1,78.15,122.4,78.15,122.4z"/>
		<path id="XMLID_711_" fill="#FFFFFF" d="M79.2,132.45c0,0-1.05,0.6-1.2,0.15c-0.15-0.3,1.05-0.3,1.05-0.3
			C79.2,132.3,79.35,132.45,79.2,132.45z"/>
		<path id="XMLID_710_" fill="#FFFFFF" d="M83.25,128.55c0.15-0.15,0.3,0,0.15,0.3C83.25,128.85,83.25,128.7,83.25,128.55
			C83.4,128.55,83.25,128.7,83.25,128.55z"/>
		<path id="XMLID_709_" fill="#FFFFFF" d="M57.15,134.1c0.15-0.15,0.3,0,0.15,0.3C57,134.4,57,134.25,57.15,134.1
			C57.15,134.1,57.15,134.25,57.15,134.1z"/>
		<path id="XMLID_708_" fill="#FFFFFF" d="M51.45,137.25c0,0-1.35,0.3-1.35-0.15c0-0.45,1.2,0,1.2,0
			C51.6,137.1,51.6,137.1,51.45,137.25z"/>
		<path id="XMLID_707_" fill="#FFFFFF" d="M54.9,124.35c0.15,0,0.15,0,0.3,0c0.15,0,0.3,0,0.45,0.15c0.3,0.3,0.45,0.6,0.45,0.9
			c-0.15,0-0.3-0.15-0.45-0.15c-0.3-0.3-0.75-0.45-1.05-0.45c0,0-0.15,0-0.15-0.15C54.75,124.35,54.9,124.35,54.9,124.35
			C55.05,124.35,54.9,124.35,54.9,124.35z"/>
		<path id="XMLID_706_" fill="#FFFFFF" d="M49.35,132.75c0-0.45,0.45-1.05,0.3-1.35c0.3-0.3,0.75-1.35,0.75-1.8
			c0.15-0.45,0.6-0.9,0.9-1.35c0.3-0.6,1.2-1.8,1.95-1.95c0.15-0.3,0.9-1.5,1.35-1.2c0.15,0,0.3,0.15,0.3,0
			c0.75-0.45,1.65,0.9,1.65,1.5c0,0.3,0.15,1.95-0.15,2.25c-0.6,1.2-0.6,2.4-1.35,3.6c-1.05,1.5-2.55,2.1-4.2,2.7
			C49.8,135.15,49.2,133.35,49.35,132.75z"/>
		<path id="XMLID_692_" fill="#FFFFFF" d="M84.6,126l-0.15,0.15c0.15,0.15-0.15,0.45-0.15,0.6c0.15,0.45-0.45,1.2-0.45,1.5
			c0,0-0.15,1.2-0.6,0.6c0.3,0.45-1.35,1.95-1.35,2.1c-0.15-0.15,0.45-0.6,0.3-0.6c0,0-0.45,0.45-0.6,0.45c0,0.15,0,0.3,0,0.3
			c0.75-0.45-0.9,0.75-0.6,0.75c-0.15,0-0.15,0-0.15,0s-0.15,0.15-0.15,0.3l-0.15,0.15c-0.15,0-0.3,0-0.3,0
			c-0.45,1.05-2.1,0.75-2.85,0.6c-0.15,0-0.3-0.15-0.45-0.15c-1.05-0.45-1.5-1.5-2.4-1.95c-0.15,0-0.15-0.15-0.3-0.15
			c-1.05-1.8-0.9-3.6-0.45-5.55c0.15-1.35,1.05-2.85,1.65-4.05c-6.45-1.65-13.35-1.2-19.5,1.35c0.3,0,0.6,0.15,0.75,0.3
			c0.3,0,0.6,0.15,0.9,0.3c1.5,1.2,1.95,3.15,1.95,4.95c0,0.45-0.15,3.75-0.3,3.75l-0.15,0.15c0.15,0.15-0.3,0.45-0.3,0.6
			c0,0.45-0.9,1.2-0.9,1.65c0,0-0.6,1.2-0.75,0.6c0.15,0.6-2.1,1.8-2.1,1.95c0-0.15,0.6-0.45,0.45-0.6l-0.75,0.3
			c-0.15,0.15-0.15,0.3-0.15,0.45c0.9-0.15-1.2,0.6-0.9,0.6c-0.15,0-0.15,0-0.3,0c0,0-0.15,0.15-0.3,0.15c0,0-0.15,0-0.3,0.15
			c-0.15,0-0.3-0.15-0.3-0.15c-0.75,1.05-2.55,0.3-3.3-0.15c-0.15-0.15-0.3-0.3-0.45-0.3c-1.05-0.75-1.2-1.95-2.1-2.85
			c-0.15-0.15-0.15-0.15-0.15-0.3c-0.6-2.1,0-4.2,1.05-6c-7.8,6.9-11.55,17.7-9.6,28.05c0-1.2,0.45-2.25,0.9-3.3
			c0.6-2.101,2.55-4.65,4.2-6.15c1.8-1.5,2.25-0.3,3.9,0.45c0.3,0,0.6,0.15,0.9,0.3c1.5,1.05,2.25,2.85,2.55,4.65
			c0,0.45,0.3,3.6,0.15,3.6l-0.15,0.15c0.15,0.149-0.15,0.45-0.3,0.6c0,0.45-0.6,1.2-0.75,1.65c0,0-0.45,1.2-0.75,0.6
			c0.3,0.601-1.8,1.95-1.8,2.101c-0.15-0.15,0.6-0.601,0.45-0.601l-0.6,0.45c-0.15,0.15,0,0.3,0,0.45c0.9-0.3-1.05,0.75-0.9,0.75
			c-0.15,0-0.15,0-0.3,0c0,0-0.15,0.149-0.15,0.3c0,0-0.15,0-0.3,0.15c-0.15,0-0.3,0-0.3,0c-0.6,1.05-2.4,0.6-3.15,0.149
			c-0.15,0-0.3-0.149-0.45-0.3c-1.05-0.6-1.5-1.8-2.25-2.55c2.1,7.05,6.75,12.899,12.9,16.8c2.4-1.95,3.15-6,3.9-8.85
			c0.45-1.801,0.75-3.75,1.35-5.551c0.6-2.399,0.9-3.149-1.95-3.149c0.3,0,0.6-0.15,0.9-0.15c-0.15-0.6-1.95-0.45-1.65-1.35
			c0.15-0.601,1.95-0.601,2.55-0.75c-0.6-0.15-1.5-0.9-1.5-1.351c-0.15-0.449-1.05-1.199-1.05-1.649c-0.45-0.75-0.6-1.5-0.6-2.4
			h0.15c-0.9-0.75,0.75-4.35,1.35-4.65v0.15l1.95-1.2c0.15,0.3,0.3,0.15,0.3,0.15c0.15-0.15,0.3-0.15,0.3,0v-0.15
			c0.6-0.15,0.45,0.6,0.9,0.6c-0.45,0.45,0.3,2.25,0.9,1.2c0-0.15,0-0.3,0-0.45c0,0.45,1.65,0.6,1.65,0.6c0-0.3,0-0.45,0.15-0.75
			c0.9-4.05,1.05-8.4,1.5-12.6c0.15-0.75,0-1.95,0.15-2.55c0.15-0.3,0.6-0.45,0.6-0.75c0-0.15,0.3-2.55,0.3-2.55h0.15
			c0,0.15,1.2-0.75,0.9-0.75c0.15,0.15,0.3,0.15,0.45,0c0.3-0.15,2.85-0.45,2.55,0.3l0.15-0.15c0.15,0,0.15,0.15,0.15,0.15
			l-0.15,0.15h-0.3c0,0.45,0.45,0.15,0.45,0.45c0.15,0,0.75,0.15,0.3,0.45h0.15c0,0,0,0.15,0.15,0.15c-0.15,0-0.15,0.15-0.3,0.3
			c0.15,0.15,0.45,0.15,0.6,0.3c0,0,0,0,0,0.15c0.15,0.15,0.45,0.3,0.6,0.45c0,0.15-0.15,0.3-0.15,0.45h0.15
			c0,0.15,0.15,0.3,0.3,0.15c0,0-0.6-0.3,0-0.45c0,0.15,0,0.15,0,0.3c0.45,0,0.15,1.05,0.15,1.2c-0.15,0-0.15,0-0.3-0.15
			c0,0,0,0.15-0.15,0.15c-0.15-0.75,0.6-1.5-0.75-1.05c0.15,0.15,0.3,0.15,0.3,0.3c0.15-0.45,0-0.45-0.3-0.45v-0.15l0,0
			c0-0.15,0.15-0.15,0.15-0.15h-0.3l0,0l0,0c-0.15-0.15-0.3,0-0.45,0c0-0.15,0-0.3,0-0.3c0.15,0,0.3,0.15,0.45,0.15
			c0.15-0.15,0.15,0.45,0.45,0c0.15,0,0.15,0,0.3-0.15c0-0.15-0.15-0.15-0.3-0.15c0,0-0.15,0-0.15-0.15c0.15-0.15,0.15-0.3-0.15-0.6
			c0,0,0,0-0.15,0v-0.15c0,0.15-0.15,0.3-0.15,0.3V129c-0.15,0.15-0.15,0.3-0.15,0.45c-0.15-0.15-0.6,0.6-0.6,0.6
			c0.3,0,0.3,0.45,0.15,0.6c0.15,0,0.3-0.15,0.45-0.3c-0.15,0.3,0,0.75,0.3,0.9c-0.15,0-0.3-0.15-0.45-0.3c0,0.3-0.3-0.15-0.3-0.3
			c-0.15,0-0.3,0.15-0.3,0.15s0.9,1.05,1.05,0.9c-0.15-0.15-0.3-0.15-0.3-0.15c0,0.15,0.3,0.6-0.15,0.45c0,0.15,0.15,0.3,0.3,0.3
			c-0.15-0.3-0.15-0.45,0.15-0.45L68.7,132c0.45,0.15,0,0.9,0.15,0.9c-0.3,0.3-0.75,0.45-0.9,0.75c-0.15-0.15-0.15-0.15-0.3-0.3
			c0.15,0,0.15,0,0.3,0c-0.15-0.15-0.3-0.3,0-0.45c0.15,0,0.3,0.15,0.45,0.15c0-0.15-0.15-0.3-0.15-0.45c0.3,0-0.15-0.6-0.15-0.15
			c0-0.3-0.75,0.6-0.75,0.6h0.15c0,0.15,0,0.45,0,0.6l0.15-0.15c0.15,0.3,0.15,0.6,0.3,0.9c0.3-0.3,1.05,0.45,0.6-0.75
			c-0.15,0.15-0.3,0.3-0.6,0.3c0,0,0.3-0.6,0.45-0.6c0,0-0.3-0.6,0.3-0.15c0.3,0.3,0,1.65-0.15,1.95c0.3,0,0.15,1.05,0,0.9
			c0,0.3,0.75,0.3,0.3,0.6c0.15-0.15,0.3-0.15,0.45,0c0,0.15-0.15,0.3-0.15,0.45c0.15,0,0.15,0.15,0.3,0.15
			c-0.15,0.15-0.3,0.45-0.15,0.6c-0.15,0-0.15,0,0,0.3c-0.3,0-0.15-0.3-0.75-0.3c0-0.15,0-0.3,0-0.3c0,0.15-0.15,0.15-0.3,0.15
			c0,0,0,0.15-0.15,0.15c0-0.15,0-0.15,0-0.3h0.15c0-0.15,0-0.45-0.15-0.6c0,0.15,0,0.3-0.15,0.45c0-0.3,0-0.6,0-0.9
			c-0.45,0.15,0,0.9-0.45,0.9h0.15c-0.15,0.3,0.45,0.15,0.6,0.15c-0.15,0.3-0.15,0.45-0.45,0.6h0.15c0-0.15,0.3-0.3,0.3,0h0.15
			c0,0,0,0.15,0,0.3h0.15c0,0.15,0,0.3,0,0.45c0.3-0.3,0.45,0,0.3,0c0.15,0.15,0.15,0.45,0,0.45c0,0-0.15,0.6,0.15,0.45
			c0,0.15-0.15,0.3-0.15,0.3s0-0.15-0.15-0.15c0,0-0.45,1.65-0.45,1.8c-0.15,0-0.15-0.15-0.3-0.15c0,0-0.15,0.15,0,0.3H67.8
			c0,0.15,0,0.3,0,0.6c0,0,0,0,0.15-0.15c0,0.3-0.15,0.45-0.45,0.3c0.3,0.6,0.3,1.2,0,1.65c0.15,0,0.15,0,0.3,0
			c-0.45,0-0.45,1.95-0.9,1.8c0.9,0.3-0.9,1.5-0.6,1.2c-0.15,0-0.45,0.15-0.3,0.3c0.15-0.15,0.3,0,0.15,0.3
			c0.15,0,0.3,0.15,0.15,0.3c0.45-0.15,2.7-1.8,2.7-1.95c0.15-0.6,1.35-1.35,1.95-1.8v0.15c0-0.75,2.25-2.1,2.7-2.55
			c0,0.15,0,0.15,0,0.3c0-1.2,2.7-3.15,3.45-3.9l0.15,0.15c0,0,0-0.15-0.15-0.15c0.15-0.15,0.3,0,0.3,0.15c0.15,0,0.15,0,0.3,0
			c-0.15-0.15-0.15-0.3-0.45-0.15c0.3-0.45,0.3-0.15,0.6-0.3c-0.15,0-0.15,0-0.3,0c0.15-0.3,0.6-0.6,0.9-0.6l-0.15-0.15
			c0.3,0.15,0.45,0,0.3-0.3c0,0,0,0-0.15,0.15c0-0.3,0-0.45,0.3-0.45c0,0.15,0,0.15,0.15,0.15c0-0.15,0-0.3,0.15-0.3v0.15
			c0,0,0.15-0.15,0.15-0.3v-0.15c0-0.15,0.15-0.15,0.3-0.15c-0.15-0.75,2.55-2.25,2.55-1.35c0.15-0.15,0.15-0.15,0-0.3h0.15
			c-0.15-0.15-0.15-0.3,0.15-0.3c0-0.6,1.95-2.4,2.4-1.8c0.15,0,0.15,0,0.15,0.15c-0.15,0.45,0.3,1.8-0.45,1.95h0.15
			c-0.6,0.6-1.5,1.8-1.95,2.55c0,0.15,0.15,0.15,0.15,0.3c-0.15,0.15-0.45,0.45-0.6,0.6c0,0-0.15,0-0.15-0.15c0,0,0,0.15,0.15,0.15
			c-0.15,0.3-0.45,0.45-0.75,0.45C81.6,138.6,81,138.9,81,138.9c0,0.45-0.75,0.6-0.9,0.9c0,0-0.15-0.15-0.15,0c0,0,0,0,0,0.15
			c-0.15,0.15-0.45,0.45-0.6,0.6c0-0.15,0-0.15,0.15-0.3h-0.15c0,0-0.45,0.6-0.3,0.6c-0.15,0-0.3,0.15-0.3,0.3c-0.15,0-0.15,0-0.3,0
			c0,0.15,0,0.15-0.15,0.3v-0.15c-0.3,0.3-2.55,2.25-2.55,2.4c0.15,0.15,0,0.3-0.15,0.3v-0.15c0,0.15-0.15,0.45,0,0.6
			c-0.15,0-0.15,0-0.15,0.15v-0.15c-0.15,0.15-1.05,1.2-1.2,1.2s-0.15-0.15-0.3-0.15c0,0.15,0.15,0.3,0,0.45c0,0-0.15-0.15-0.15-0.3
			c-0.15,0.15-0.45,0.3-0.45,0.6c-0.15,0-0.15,0-0.3,0.15c0,0.15,0,0.15,0,0.3c0,0-0.15,0-0.15,0.15c0-0.15,0-0.15,0-0.3
			c-0.15,0.15-0.3,0.15-0.45,0.3V147c0,0-0.15-0.15,0-0.15c-0.15,0.45-1.5,1.35-1.8,1.5H70.5c0,0.15-0.15,0.15-0.15,0.15
			c0,0.15,0,0.15-0.15,0.3c0,0,0,0,0.15,0.15c-0.3-0.15-1.2,0.45-1.2,0.75c-0.15,0-0.3,0-0.45,0c0,0-0.75,0.45-0.75,0.6
			c-0.15,0-0.3,0.15-0.3,0.3c0.15,0.301-0.45,0.301-0.3,0.601H67.2c-0.15,0.149-0.3,0.3-0.45,0.6c0,0,0.15,0,0.15,0.15
			c0,0.149,0.15,0.3,0.3,0.3c0,0,0-0.15,0.15-0.15c0.15,0.15,0.3,0.301,0.45,0.45c-0.45,0,0.15,0.3,0.15,0.601
			c0,0,0.15-0.15,0.3-0.15c0,0,0-0.15-0.15-0.15c0,0,0.45,0.75,0.45,0.9c0.15-0.15,0.15-0.3,0.15-0.45c0.45,0.3,0.75,0.75,0.9,1.2
			c0,0,0-0.15,0.15-0.15l0.15,0.15c-0.45-0.75,0.15-0.45,0.15-0.3c0,0,0.15,0,0.15-0.15c0,0.15,0,0.15-0.15,0.15
			c0.3-0.15,0,0.6,0,0.75c0,0,0.45,1.05,1.05,1.05c0,0.15-0.15,0.3,0,0.45c0,0,0,0,0.15-0.15c0,0.15,0.15,0.15,0.3,0.3
			c0,0-0.15,0-0.15,0.15c0.15-0.15,0.45,0.15,0.45,0.3c0-0.149,0.15-0.3,0.3-0.3c0,0.15,0,0.3,0,0.45c0.15,0,0.15-0.15,0.15-0.3
			c0.15,0.149,0.15,0.3,0.15,0.449c0.45-0.149,0.3,0.601,0.3,0.75c0,0,0.15-0.149,0.15-0.3l0.15,0.15l0.15-0.15
			c0,0.15-0.15,0.3-0.15,0.3c0.3,0.15,0.15,0.601,0.3,0.601s0.3-0.15,0.15-0.3c0.3,0.149,0,0.6,0.15,0.75c0.3-0.15,0.3,0,0.3,0.3
			h0.15c0,0.149,0,0.3,0.15,0.45v-0.15c-0.15,0,0.9,1.2,1.05,1.35h-0.15c0.45,0.45,1.35,1.2,1.35,1.801c0-0.15,0-0.15,0-0.301
			c1.5,1.95,3.15,3.601,4.65,5.4c1.8,2.1,3.9,2.55,6.75,2.85V171c0.15,0,0.45,0,0.6,0c0,0,0,0,0,0.15
			c13.8-13.051,12-36.15-3.75-46.65C84.45,125.25,84.3,126.15,84.6,126z M68.1,127.35C67.95,127.35,67.95,127.35,68.1,127.35
			C67.95,127.2,68.1,127.2,68.1,127.35C68.1,127.2,68.1,127.35,68.1,127.35z M69.15,128.1c0,0-0.15,0-0.15-0.15l0,0
			c0-0.15,0-0.15-0.15-0.15c0.3,0,0.45,0.15,0.45,0.3H69.15z M69,138.9C68.85,138.9,68.85,138.9,69,138.9
			c-0.15-0.15-0.15-0.15-0.15-0.3l0.3,0.3C69,139.05,69,139.05,69,138.9C68.85,138.9,69,139.05,69,138.9z M68.25,143.25
			L68.25,143.25c0,0.15,0,0.15,0,0.15c-0.15,0-0.15,0,0,0.15v0.15c-0.15,0-0.15-0.15,0-0.3c0,0-0.15,0-0.15-0.15l0,0
			C68.1,143.4,68.1,143.4,68.25,143.25C68.1,143.1,68.25,143.1,68.25,143.25C68.4,143.25,68.25,143.25,68.25,143.25z M68.7,142.8
			v0.15c0-0.15-0.15-0.15-0.15-0.15H68.4c0,0,0,0,0,0.15l0,0c0,0,0,0,0,0.15l0,0c0,0,0,0,0-0.15c-0.15,0-0.15-0.15,0-0.3l0,0l0,0
			v-0.15c0-0.15,0-0.15,0.15-0.15v0.15C68.55,142.65,68.55,142.65,68.7,142.8c-0.15-0.15,0-0.15,0-0.15
			C68.85,142.65,68.85,142.65,68.7,142.8C68.7,142.8,68.85,142.65,68.7,142.8z M69.6,139.05c0,0.15-0.15,0.15-0.15,0.3l0,0
			l-0.15-0.15C69.45,139.05,69.45,139.05,69.6,139.05c-0.15,0-0.15,0-0.3-0.15h-0.15c0,0,0-0.15,0.15-0.15v-0.15l0,0
			c0.15,0,0.15,0,0.3,0C69.6,138.75,69.6,138.9,69.6,139.05C69.45,139.05,69.6,138.9,69.6,139.05z M69.45,134.85
			c0,0-0.15,0.15-0.15,0.3V135c0-0.15,0-0.15-0.15-0.15l0,0l0,0c0-0.15,0-0.3,0.15-0.45c0.15-0.15,0.15-0.3,0.15-0.45v-0.15
			c0-0.15-0.15-0.15,0-0.3c0,0-0.15,0-0.15-0.15c0.15,0,0.15,0,0.15-0.15v-0.15c0,0.15,0.15,0.15,0.15,0.15s0.15-0.15,0.3-0.15
			c0,0.15-0.15,0.3-0.15,0.3c0.15,0.3,0,0.6,0,0.75C69.6,134.55,69.45,134.7,69.45,134.85C69.45,134.85,69.6,134.85,69.45,134.85
			C69.45,134.85,69.6,134.85,69.45,134.85C69.45,134.85,69.6,134.85,69.45,134.85z M70.5,133.05v0.15c0,0,0,0-0.15,0.15
			c0,0,0,0,0,0.15c-0.15,0.15-0.15,0.15-0.15,0.3v0.15c-0.15,0,0,0.45,0,0.6c-0.15,0,0,0.15-0.15,0.15c0.15,0.15,0,1.2-0.15,1.5
			c0,0.15,0,0.15-0.15,0.15H69.6c0-0.15,0-0.15-0.15-0.15c0.15,0,0.15-0.15,0.3-0.15c0-0.15,0-0.15,0-0.15s-0.3-0.45-0.3-0.75
			c0.15,0,0.15,0,0.15,0l-0.15-0.6c0,0,0.15,0,0.15-0.15l0.15,0.15c0-0.15,0-0.15,0-0.3l-0.15-0.15v-0.15c0.15,0,0-0.45,0-0.3
			c0.15-0.15,0.15-0.15,0.3-0.3c-0.15,0-0.15-0.15-0.15-0.15c0-0.15,0.15-0.15,0.15-0.3c-0.3-0.3-0.3-1.05-0.3-1.05
			c0.15-1.2,0.45,0.75,0.45,1.2C70.5,132.9,70.5,132.9,70.5,133.05C70.5,133.05,70.5,132.9,70.5,133.05z M71.1,131.85
			c0,0.15-0.15,0.15-0.15,0.3c0,0.3-0.15,0.6-0.45,0.6v-0.15c0.15,0,0.3-0.15,0.15-0.3c0-0.15,0.15-0.3,0.15-0.45
			c0.15-0.15,0.15-0.3,0.15-0.45v-0.15c0-0.15-0.15-0.15,0-0.3c0,0-0.15,0-0.15-0.15c0.15,0,0.15,0,0.15-0.15v-0.15
			C71.1,131.25,71.25,131.4,71.1,131.85C71.1,132,71.25,131.7,71.1,131.85z M68.4,151.05V150.9h0.15h0.15
			C68.7,150.9,68.7,150.9,68.4,151.05C68.4,151.05,68.7,150.9,68.4,151.05z M71.55,157.2c-0.15,0-0.3-0.3-0.3-0.45
			C71.55,156.75,71.55,156.9,71.55,157.2C71.7,156.75,71.85,157.05,71.55,157.2z M91.95,156c0.15,0.15-0.15,0.6-0.3,0.75
			c0.15,0.45-0.75,1.5-0.75,1.95c0,0-0.45,1.5-0.75,0.75c0.3,0.6-2.1,2.399-1.95,2.55c-0.15-0.15,0.6-0.75,0.45-0.75
			c0.15,0-0.75,0.45-0.75,0.45c-0.15,0.149,0,0.3,0,0.45c-0.3,0.149-0.75,0.899-0.9,0.899s-0.15,0-0.3,0c0,0-0.15,0.15-0.3,0.3
			c0,0-0.15,0.15-0.3,0.15s-0.3,0-0.45,0c-0.75,1.35-2.7,0.9-3.75,0.45c-0.15,0-0.3-0.3-0.6-0.3c-0.45-0.301-0.9-0.601-1.35-1.051
			c-0.6-0.6-0.9-1.35-1.65-1.8c-0.15-0.149-0.3-0.149-0.3-0.3c-1.2-2.4-0.75-4.8,0-7.35c0.45-2.551,2.55-5.55,4.35-7.351
			c2.1-2.1,2.7-0.9,4.8,0c0.45,0,0.75,0,1.2,0.15c1.8,0.9,2.7,3,3.3,4.8c0.15,0.6,0.75,4.8,0.6,4.8C92.1,155.85,91.95,156,91.95,156
			C92.1,156.15,91.95,156,91.95,156z"/>
		<path id="XMLID_691_" fill="#FFFFFF" d="M45.6,148.35c0.15,0,0.15,0,0.3,0s0.3,0,0.45,0c0.3,0.3,0.45,0.45,0.6,0.9
			c-0.15,0-0.3,0-0.45-0.15c-0.3-0.15-0.75-0.3-1.05-0.45c0,0-0.15,0-0.15-0.15C45.45,148.5,45.45,148.35,45.6,148.35
			S45.45,148.35,45.6,148.35z"/>
		<path id="XMLID_690_" fill="#FFFFFF" d="M43.65,161.4c0,0-1.2,0.449-1.35,0c0-0.45,1.2-0.15,1.2-0.15
			C43.8,161.25,43.8,161.25,43.65,161.4z"/>
		<path id="XMLID_689_" fill="#FFFFFF" d="M47.55,152.55c-0.45,1.2-0.3,2.4-0.9,3.601c-0.75,1.5-2.25,2.399-3.75,3
			c-2.1,0.75-1.35-2.851-1.65-3.45c0.3-0.3,0.45-1.351,0.6-1.8c0.15-0.45,0.45-0.9,0.6-1.5c0.3-0.601,1.05-1.95,1.65-2.101
			c0.15-0.3,0.75-1.65,1.2-1.35c0.15,0,0.3,0,0.3,0c0.6-0.6,1.8,0.75,1.8,1.2C47.55,150.6,47.85,152.25,47.55,152.55
			C47.55,152.85,47.7,152.4,47.55,152.55z"/>
		<path id="XMLID_688_" fill="#FFFFFF" d="M48.9,157.95v-0.15c0.15-0.149,0.3,0,0.15,0.3C49.05,158.1,48.9,158.1,48.9,157.95z"/>
		<path id="XMLID_687_" fill="#FFFFFF" d="M90.3,159c0.3-0.15,0.3,0,0.3,0.45C90.3,159.3,90.15,159.3,90.3,159
			C90.3,159,90.3,159.15,90.3,159z"/>
		<path id="XMLID_686_" fill="#FFFFFF" d="M85.65,148.2c0.15,0,0.3,0,0.3,0c0.15-0.15,0.3,0,0.6,0c0.3,0.3,0.6,0.6,0.75,0.9
			c-0.15,0-0.45,0-0.45-0.15c-0.45-0.15-0.9-0.3-1.35-0.3c0,0-0.15,0-0.3-0.15C85.35,148.35,85.5,148.2,85.65,148.2
			C85.8,148.35,85.5,148.2,85.65,148.2z"/>
		<path id="XMLID_685_" fill="#FFFFFF" d="M84.45,163.65c0,0-1.35,0.75-1.5,0.149c-0.15-0.45,1.35-0.3,1.35-0.3
			C84.6,163.5,84.6,163.65,84.45,163.65C84.15,163.95,84.45,163.65,84.45,163.65z"/>
		<path id="XMLID_684_" fill="#FFFFFF" d="M88.35,153c-0.45,1.65-0.15,3.15-1.05,4.8c-0.9,1.65-2.4,2.7-4.05,3.45
			c-1.05,0.45-1.95-1.2-2.25-1.95c-0.15-0.6,0.15-1.5,0-1.95c0.3-0.449,0.45-1.649,0.6-2.1c0.15-0.6,0.45-1.2,0.6-1.8
			c0.3-0.75,1.05-2.25,1.8-2.7c0.15-0.45,0.75-1.95,1.35-1.65c0.15,0,0.3,0,0.45,0c0.75-0.75,2.1,0.75,2.25,1.35
			C88.05,150.75,88.65,152.55,88.35,153C88.2,153.3,88.35,152.85,88.35,153z"/>
	</g>
</g>
</svg>
