<?xml version="1.0" encoding="utf-8"?>
<!-- Generator: Adobe Illustrator 15.1.0, SVG Export Plug-In . SVG Version: 6.00 Build 0)  -->
<svg version="1.1" id="Calque_1" xmlns="http://www.w3.org/2000/svg" xmlns:xlink="http://www.w3.org/1999/xlink" x="0px" y="0px"
	 viewBox="0 0 24 16" style="enable-background:new 0 0 24 16;" xml:space="preserve">
<rect fill="none" width="24" height="16"/>
<g>
	<path fill="#FF931E" d="M200,50c-53.75,0-100,46.25-100,100s46.25,100,100,100s100-46.25,100-100S253.75,50,200,50z M286.25,150
		c0,46.25-38.75,86.25-86.25,86.25c-46.25,0-86.25-38.75-86.25-86.25S152.5,63.75,200,63.75C246.25,63.75,286.25,103.75,286.25,150z
		"/>
	<g>
		<path fill="#FF931E" d="M170.762,120.832v58.337c0,3.535,3.537,7.07,7.072,7.07s7.07-3.535,7.07-7.07v-58.337
			c0-3.536-3.535-7.071-7.07-7.071S170.762,117.296,170.762,120.832z"/>
		<path fill="#FF931E" d="M215.096,120.832v58.337c0,3.535,3.535,7.07,7.07,7.07c3.537,0,7.072-3.535,7.072-7.07v-58.337
			c0-3.536-3.535-7.071-7.072-7.071C218.631,113.761,215.096,117.296,215.096,120.832z"/>
	</g>
</g>
</svg>
