<?xml version="1.0" encoding="utf-8"?>
<!-- Generator: Adobe Illustrator 15.1.0, SVG Export Plug-In . SVG Version: 6.00 Build 0)  -->
<svg version="1.1" id="Calque_1" xmlns="http://www.w3.org/2000/svg" xmlns:xlink="http://www.w3.org/1999/xlink" x="0px" y="0px"
	 viewBox="0 0 38 24" style="enable-background:new 0 0 38 24;" xml:space="preserve">
<rect fill="none" width="38" height="24"/>
<g>
	<g id="XMLID_759_">
		<path id="XMLID_761_" fill="#FF931E" d="M205.264,55.264c-51.316,0-94.737,43.421-94.737,94.736
			c0,51.316,43.42,94.736,94.737,94.736S300,201.316,300,150C300,98.685,256.58,55.264,205.264,55.264z M205.264,236.053
			c-46.58,0-86.053-39.474-86.053-86.053s39.473-86.053,86.053-86.053c46.578,0,86.053,39.474,86.053,86.053
			S251.842,236.053,205.264,236.053z"/>
	</g>
	<g>
		<path fill="#FF931E" d="M186.052,181.219L186.052,181.219c2.233,0,4.467-2.233,4.466-4.466l0.001-53.592
			c-0.001-2.233-2.233-4.466-4.466-4.466l0,0c-2.234,0-4.467,2.232-4.466,4.466l-0.001,53.591
			C181.027,179.543,183.261,181.776,186.052,181.219z"/>
		<path fill="#FF931E" d="M224.561,181.219L224.561,181.219c2.233,0,4.467-2.233,4.466-4.466l0.001-53.592
			c-0.001-2.233-2.233-4.466-4.466-4.466l0,0c-2.234,0-4.467,2.232-4.466,4.466l-0.001,53.591
			C219.536,179.543,221.77,181.776,224.561,181.219z"/>
	</g>
</g>
</svg>
