<?xml version="1.0" encoding="utf-8"?>
<!-- Generator: Adobe Illustrator 19.2.1, SVG Export Plug-In . SVG Version: 6.00 Build 0)  -->
<svg version="1.1" id="Calque_1" xmlns="http://www.w3.org/2000/svg" xmlns:xlink="http://www.w3.org/1999/xlink" x="0px" y="0px"
	 viewBox="0 0 24 16" style="enable-background:new 0 0 24 16;" xml:space="preserve">
<style type="text/css">
	.st0{fill:none;}
	.st1{fill:#ED676A;}
</style>
<rect class="st0" width="24" height="16"/>
<g>
	<path class="st1" d="M16.9,8l2.2-2.2c0.2-0.2,0.2-0.6,0-0.8c-0.2-0.2-0.6-0.2-0.8,0l-2.2,2.2l-2.2-2.2c-0.2-0.2-0.6-0.2-0.8,0
		C13,5,12.9,5.2,12.9,5.3c0,0.2,0.1,0.3,0.2,0.4L15.3,8l-2.4,2.4c-0.2,0.2-0.2,0.6,0,0.8c0.2,0.2,0.6,0.2,0.8,0l2.4-2.4l2.4,2.4
		c0.1,0.1,0.2,0.2,0.4,0.2c0.2,0,0.3-0.1,0.4-0.2c0.2-0.2,0.2-0.6,0-0.8L16.9,8z"/>
	<path class="st1" d="M16,0c-4.3,0-8,3.7-8,8s3.7,8,8,8s8-3.7,8-8S20.3,0,16,0z M22.9,8c0,3.7-3.1,6.9-6.9,6.9
		c-3.7,0-6.9-3.1-6.9-6.9s3.1-6.9,6.9-6.9C19.7,1.1,22.9,4.3,22.9,8z"/>
</g>
</svg>
