<?xml version="1.0" encoding="utf-8"?>
<!-- Generator: Adobe Illustrator 19.2.1, SVG Export Plug-In . SVG Version: 6.00 Build 0)  -->
<svg version="1.1" id="Calque_1" xmlns="http://www.w3.org/2000/svg" xmlns:xlink="http://www.w3.org/1999/xlink" x="0px" y="0px"
	 viewBox="0 0 38 24" style="enable-background:new 0 0 38 24;" xml:space="preserve">
<style type="text/css">
	.st0{fill:none;}
	.st1{fill:#ED676A;}
</style>
<rect class="st0" width="38" height="24"/>
<g id="XMLID_7_">
	<path id="XMLID_122_" class="st1" d="M21.9,16.8c0.1,0,0.3-0.1,0.4-0.2l3.8-3.8l3.8,3.8c0.1,0.1,0.3,0.2,0.4,0.2
		c0.1,0,0.3-0.1,0.4-0.2c0.2-0.2,0.2-0.6,0-0.8L27,11.9l3.6-3.6c0.2-0.2,0.2-0.6,0-0.8c-0.2-0.2-0.6-0.2-0.8,0l-3.6,3.6l-3.6-3.6
		c-0.2-0.2-0.6-0.2-0.8,0c-0.2,0.2-0.2,0.6,0,0.8l3.6,3.6l-3.8,3.8c-0.2,0.2-0.2,0.6,0,0.8C21.6,16.7,21.8,16.8,21.9,16.8z"/>
	<path id="XMLID_113_" class="st1" d="M14,12c0,6.5,5.5,12,12,12c6.5,0,12-5.5,12-12c0-6.5-5.5-12-12-12C19.5,0,14,5.5,14,12z
		 M26,1.1c5.9,0,10.9,5,10.9,10.9c0,5.9-5,10.9-10.9,10.9c-5.9,0-10.9-5-10.9-10.9C15.1,6.1,20.1,1.1,26,1.1z"/>
</g>
</svg>
