<?xml version="1.0" encoding="utf-8"?>
<!-- Generator: Adobe Illustrator 19.2.1, SVG Export Plug-In . SVG Version: 6.00 Build 0)  -->
<svg version="1.1" id="Calque_1" xmlns="http://www.w3.org/2000/svg" xmlns:xlink="http://www.w3.org/1999/xlink" x="0px" y="0px"
	 viewBox="0 0 24 16" style="enable-background:new 0 0 24 16;" xml:space="preserve">
<style type="text/css">
	.st0{fill:none;}
	.st1{fill:#7AC943;}
</style>
<rect class="st0" width="24" height="16"/>
<g>
	<path class="st1" d="M19.3,5.3l-4.5,4.5l-1.9-1.9c-0.2-0.2-0.6-0.2-0.8,0c-0.2,0.2-0.2,0.6,0,0.8l2.3,2.3c0.1,0.1,0.3,0.2,0.4,0.2
		s0.3-0.1,0.4-0.2l4.9-4.9c0.2-0.2,0.2-0.6,0-0.8C19.9,5.1,19.5,5.1,19.3,5.3z"/>
	<path class="st1" d="M16,0c-4.3,0-8,3.7-8,8s3.7,8,8,8s8-3.7,8-8S20.3,0,16,0z M22.9,8c0,3.7-3.1,6.9-6.9,6.9
		c-3.7,0-6.9-3.1-6.9-6.9s3.1-6.9,6.9-6.9C19.7,1.1,22.9,4.3,22.9,8z"/>
</g>
</svg>
