<?xml version="1.0" encoding="utf-8"?>
<!-- Generator: Adobe Illustrator 19.2.1, SVG Export Plug-In . SVG Version: 6.00 Build 0)  -->
<svg version="1.1" id="Calque_1" xmlns="http://www.w3.org/2000/svg" xmlns:xlink="http://www.w3.org/1999/xlink" x="0px" y="0px"
	 viewBox="0 0 38 24" style="enable-background:new 0 0 38 24;" xml:space="preserve">
<style type="text/css">
	.st0{fill:none;}
	.st1{fill:#66CC33;}
</style>
<rect class="st0" width="38" height="24"/>
<g id="XMLID_481_">
	<path id="XMLID_495_" class="st1" d="M31.3,8l-7.2,7.2L21,12c-0.2-0.2-0.6-0.2-0.8,0c-0.2,0.2-0.2,0.6,0,0.8l3.6,3.6
		c0.1,0.1,0.3,0.2,0.4,0.2c0.2,0,0.3-0.1,0.4-0.2l7.6-7.6c0.2-0.2,0.2-0.6,0-0.8C31.9,7.8,31.5,7.8,31.3,8z"/>
	<path id="XMLID_485_" class="st1" d="M26,0c-6.5,0-12,5.5-12,12s5.5,12,12,12s12-5.5,12-12S32.5,0,26,0z M26,22.9
		c-5.9,0-10.9-5-10.9-10.9S20.1,1.1,26,1.1s10.9,5,10.9,10.9S31.9,22.9,26,22.9z"/>
</g>
</svg>
