<?xml version="1.0" encoding="utf-8"?>
<!-- Generator: Adobe Illustrator 19.2.1, SVG Export Plug-In . SVG Version: 6.00 Build 0)  -->
<svg version="1.1" id="Calque_1" xmlns="http://www.w3.org/2000/svg" xmlns:xlink="http://www.w3.org/1999/xlink" x="0px" y="0px"
	 viewBox="0 0 38 24" style="enable-background:new 0 0 38 24;" xml:space="preserve">
<style type="text/css">
	.st0{fill:none;}
	.st1{fill:#60DADF;}
</style>
<rect class="st0" width="38" height="24"/>
<path class="st1" d="M26,0c-6.5,0-12,5.5-12,12s5.5,12,12,12s12-5.5,12-12S32.5,0,26,0z M26,1.1c5.8,0,10.8,4.9,10.9,10.7
	c-0.6,0.6-2.7,2.6-5.1,2.6c-2.4,0-3.5-1-4.7-2.2c-0.2-0.2-0.5-0.5-0.7-0.7c-0.2-0.2-0.5-0.4-0.7-0.7c-1.2-1.2-2.5-2.5-5.4-2.5
	c-2.1,0-3.9,1.2-5,2.1C15.9,5.3,20.6,1.1,26,1.1z M26,22.9c-5.8,0-10.8-4.9-10.9-10.7c0.6-0.6,2.7-2.6,5.1-2.6c2.4,0,3.5,1,4.7,2.2
	c0.2,0.2,0.5,0.5,0.7,0.7c0.2,0.2,0.5,0.4,0.7,0.7c1.2,1.2,2.5,2.5,5.4,2.5c2.1,0,3.9-1.2,5-2.1C36.1,18.7,31.4,22.9,26,22.9z"/>
</svg>
