<?xml version="1.0" encoding="utf-8"?>
<!-- Generator: Adobe Illustrator 15.1.0, SVG Export Plug-In . SVG Version: 6.00 Build 0)  -->
<svg version="1.1" id="Calque_1" xmlns="http://www.w3.org/2000/svg" xmlns:xlink="http://www.w3.org/1999/xlink" x="0px" y="0px"
	 viewBox="0 0 38 24" style="enable-background:new 0 0 38 24;" xml:space="preserve">
<rect fill="none" width="38" height="24"/>
<g>
	<path id="XMLID_1_" fill="#FF931E" d="M26,0c-6.499,0-12.001,5.5-12.001,12S19.499,24,26,24c6.5,0,12-5.5,12-12S32.5,0,26,0z
		 M26,22.9c-5.9,0-10.899-5-10.899-10.9S20.1,1.101,26,1.101S36.9,6.1,36.9,12S31.9,22.9,26,22.9z"/>
	<path fill="#FF931E" d="M23.566,15.955L23.566,15.955c0.282,0,0.565-0.283,0.565-0.566V8.601c0-0.282-0.281-0.566-0.565-0.566l0,0
		c-0.283,0-0.564,0.283-0.564,0.566v6.788C22.931,15.742,23.214,16.025,23.566,15.955z"/>
	<path fill="#FF931E" d="M28.444,15.955L28.444,15.955c0.283,0,0.566-0.283,0.566-0.566V8.601c0-0.282-0.283-0.566-0.566-0.566l0,0
		c-0.283,0-0.565,0.283-0.565,0.566v6.788C27.808,15.742,28.091,16.025,28.444,15.955z"/>
</g>
</svg>
