<?xml version="1.0" encoding="utf-8"?>
<!-- Generator: Adobe Illustrator 15.1.0, SVG Export Plug-In . SVG Version: 6.00 Build 0)  -->
<svg version="1.1" id="Layer_1" xmlns="http://www.w3.org/2000/svg" xmlns:xlink="http://www.w3.org/1999/xlink" x="0px" y="0px"
	 viewBox="0 0 38 24" style="enable-background:new 0 0 38 24;" xml:space="preserve">
<rect fill="none" width="38" height="24"/>
<g>
	<path id="XMLID_1_" fill="#FF931E" d="M205.264,55.264c-51.314,0-94.737,43.422-94.737,94.736
		c0,51.316,43.421,94.736,94.737,94.736c51.317,0,94.736-43.42,94.736-94.736C300,98.686,256.58,55.264,205.264,55.264z
		 M205.264,236.054c-46.58,0-86.053-39.475-86.053-86.054c0-46.578,39.473-86.053,86.053-86.053
		c46.578,0,86.053,39.475,86.053,86.053C291.316,196.579,251.842,236.054,205.264,236.054z"/>
	<path fill="#FF931E" d="M186.052,181.22L186.052,181.22c2.233,0,4.468-2.232,4.466-4.466l0.002-53.593
		c-0.002-2.232-2.232-4.466-4.467-4.466l0,0c-2.234,0-4.467,2.232-4.466,4.466l-0.001,53.591
		C181.027,179.543,183.262,181.775,186.052,181.22z"/>
	<path fill="#FF931E" d="M224.561,181.22L224.561,181.22c2.233,0,4.467-2.232,4.467-4.466v-53.593c0-2.232-2.231-4.466-4.465-4.466
		l0,0c-2.233,0-4.467,2.232-4.467,4.466v53.591C219.536,179.543,221.77,181.775,224.561,181.22z"/>
</g>
</svg>
