<?xml version="1.0" encoding="utf-8"?>
<!-- Generator: Adobe Illustrator 19.2.1, SVG Export Plug-In . SVG Version: 6.00 Build 0)  -->
<svg version="1.1" id="Calque_1" xmlns="http://www.w3.org/2000/svg" xmlns:xlink="http://www.w3.org/1999/xlink" x="0px" y="0px"
	 viewBox="0 0 38 24" style="enable-background:new 0 0 38 24;" xml:space="preserve">
<style type="text/css">
	.st0{fill:none;}
	.st1{fill:#75757F;}
</style>
<rect class="st0" width="38" height="24"/>
<path class="st1" d="M26,0c-6.5,0-12,5.5-12,12s5.5,12,12,12s12-5.5,12-12S32.5,0,26,0z M36.9,12c0,2.8-1.1,5.3-2.9,7.3L18.7,4
	c1.9-1.8,4.5-2.9,7.3-2.9C31.9,1.1,36.9,6.1,36.9,12z M15.1,12c0-2.8,1.1-5.3,2.9-7.3L33.3,20c-1.9,1.8-4.5,2.9-7.3,2.9
	C20.1,22.9,15.1,17.9,15.1,12z"/>
</svg>
